<svg width="272" height="308" viewBox="0 0 272 308" fill="none" xmlns="http://www.w3.org/2000/svg">
<rect width="272" height="308" fill="#E5E5E5"/>
<mask id="mask0_0_161" style="mask-type:alpha" maskUnits="userSpaceOnUse" x="0" y="0" width="272" height="308">
<path d="M250 308H22C9.84974 308 0 298.15 0 286V22C0 9.84974 9.84974 0 22 0H170L272 102V286C272 298.15 262.15 308 250 308Z" fill="url(#paint0_linear_0_161)"/>
</mask>
<g mask="url(#mask0_0_161)">
<path d="M250 308H22C9.84974 308 0 298.15 0 286V22C0 9.84974 9.84974 0 22 0H170L272 102V286C272 298.15 262.15 308 250 308Z" fill="url(#paint1_linear_0_161)"/>
<g opacity="0.2" filter="url(#filter0_f_0_161)">
<rect x="48" y="149" width="178" height="84" fill="#780AAF" style="mix-blend-mode:darken"/>
</g>
<path d="M71.5502 217.395C70.4969 217.395 69.6279 217.053 68.9432 216.368C68.3112 215.683 67.9952 214.841 67.9952 213.84C67.9952 213.419 68.1269 212.892 68.3902 212.26L88.5352 164.702C88.9565 163.754 89.5359 162.99 90.2732 162.411C91.0632 161.779 92.0112 161.463 93.1172 161.463H93.9072C95.0132 161.463 95.9349 161.779 96.6722 162.411C97.4622 162.99 98.0679 163.754 98.4892 164.702L118.634 212.26C118.898 212.892 119.029 213.419 119.029 213.84C119.029 214.841 118.687 215.683 118.002 216.368C117.37 217.053 116.528 217.395 115.474 217.395C114.737 217.395 114.052 217.211 113.42 216.842C112.841 216.421 112.393 215.868 112.077 215.183L106.942 202.859H80.0822L74.9472 215.183C74.6312 215.868 74.1572 216.421 73.5252 216.842C72.9459 217.211 72.2875 217.395 71.5502 217.395ZM82.8472 196.302H104.177L93.5122 170.627L82.8472 196.302ZM151.589 217.395C149.43 217.395 147.797 216.184 146.691 213.761L127.178 166.44C127.02 166.019 126.941 165.571 126.941 165.097C126.941 163.991 127.257 163.122 127.889 162.49C128.521 161.805 129.39 161.463 130.496 161.463C131.233 161.463 131.892 161.7 132.471 162.174C133.103 162.595 133.577 163.175 133.893 163.912L152.458 210.206L171.023 163.912C171.339 163.175 171.787 162.595 172.366 162.174C172.998 161.7 173.683 161.463 174.42 161.463C175.526 161.463 176.395 161.805 177.027 162.49C177.659 163.122 177.975 163.991 177.975 165.097C177.975 165.571 177.896 166.019 177.738 166.44L158.225 213.761C157.119 216.184 155.486 217.395 153.327 217.395H151.589ZM196.645 217.395C195.645 217.395 194.802 217.053 194.117 216.368C193.433 215.683 193.09 214.841 193.09 213.84V165.097C193.09 164.096 193.433 163.254 194.117 162.569C194.802 161.832 195.645 161.463 196.645 161.463C197.646 161.463 198.489 161.832 199.173 162.569C199.911 163.254 200.279 164.096 200.279 165.097V213.84C200.279 214.841 199.911 215.683 199.173 216.368C198.489 217.053 197.646 217.395 196.645 217.395Z" fill="white"/>
<path d="M68.9432 216.368L67.4736 217.725L67.5007 217.754L67.529 217.782L68.9432 216.368ZM68.3902 212.26L66.5486 211.48L66.544 211.491L68.3902 212.26ZM88.5352 164.702L86.7076 163.89L86.7004 163.906L86.6936 163.922L88.5352 164.702ZM90.2732 162.411L91.5088 163.984L91.5157 163.978L91.5226 163.973L90.2732 162.411ZM96.6722 162.411L95.3706 163.93L95.4283 163.979L95.4895 164.024L96.6722 162.411ZM98.4892 164.702L100.331 163.922L100.324 163.906L100.317 163.89L98.4892 164.702ZM118.634 212.26L120.48 211.491L120.476 211.48L118.634 212.26ZM118.002 216.368L116.588 214.954L116.56 214.982L116.533 215.011L118.002 216.368ZM113.42 216.842L112.244 218.459L112.325 218.519L112.412 218.57L113.42 216.842ZM112.077 215.183L110.231 215.952L110.246 215.987L110.261 216.021L112.077 215.183ZM106.942 202.859L108.788 202.09L108.276 200.859H106.942V202.859ZM80.0822 202.859V200.859H78.7489L78.236 202.09L80.0822 202.859ZM74.9472 215.183L76.7631 216.021L76.7789 215.987L76.7934 215.952L74.9472 215.183ZM73.5252 216.842L74.5989 218.529L74.6169 218.518L74.6346 218.506L73.5252 216.842ZM82.8472 196.302L81.0002 195.535L79.8507 198.302H82.8472V196.302ZM104.177 196.302V198.302H107.174L106.024 195.535L104.177 196.302ZM93.5122 170.627L95.3592 169.86L93.5122 165.413L91.6652 169.86L93.5122 170.627ZM71.5502 215.395C70.9759 215.395 70.6322 215.229 70.3574 214.954L67.529 217.782C68.6235 218.877 70.0178 219.395 71.5502 219.395V215.395ZM70.4128 215.011C70.1484 214.725 69.9952 214.379 69.9952 213.84H65.9952C65.9952 215.303 66.474 216.642 67.4736 217.725L70.4128 215.011ZM69.9952 213.84C69.9952 213.797 70.0189 213.551 70.2364 213.029L66.544 211.491C66.2348 212.233 65.9952 213.041 65.9952 213.84H69.9952ZM70.2318 213.04L90.3768 165.482L86.6936 163.922L66.5486 211.48L70.2318 213.04ZM90.3628 165.514C90.6661 164.832 91.0542 164.341 91.5088 163.984L89.0376 160.838C88.0175 161.64 87.247 162.676 86.7076 163.89L90.3628 165.514ZM91.5226 163.973C91.9243 163.651 92.4202 163.463 93.1172 163.463V159.463C91.6022 159.463 90.2021 159.907 89.0238 160.849L91.5226 163.973ZM93.1172 163.463H93.9072V159.463H93.1172V163.463ZM93.9072 163.463C94.6063 163.463 95.0459 163.651 95.3706 163.93L97.9738 160.892C96.8238 159.907 95.4201 159.463 93.9072 159.463V163.463ZM95.4895 164.024C95.9817 164.385 96.3731 164.865 96.6616 165.514L100.317 163.89C99.7626 162.643 98.9427 161.596 97.8549 160.798L95.4895 164.024ZM96.6476 165.482L116.793 213.04L120.476 211.48L100.331 163.922L96.6476 165.482ZM116.788 213.029C117.005 213.551 117.029 213.797 117.029 213.84H121.029C121.029 213.041 120.79 212.233 120.48 211.491L116.788 213.029ZM117.029 213.84C117.029 214.33 116.884 214.658 116.588 214.954L119.416 217.782C120.49 216.709 121.029 215.351 121.029 213.84H117.029ZM116.533 215.011C116.331 215.23 116.05 215.395 115.474 215.395V219.395C117.005 219.395 118.41 218.875 119.472 217.725L116.533 215.011ZM115.474 215.395C115.088 215.395 114.752 215.303 114.428 215.114L112.412 218.57C113.353 219.118 114.386 219.395 115.474 219.395V215.395ZM114.597 215.225C114.308 215.015 114.074 214.736 113.893 214.345L110.261 216.021C110.713 216.999 111.374 217.827 112.244 218.459L114.597 215.225ZM113.923 214.414L108.788 202.09L105.096 203.628L110.231 215.952L113.923 214.414ZM106.942 200.859H80.0822V204.859H106.942V200.859ZM78.236 202.09L73.101 214.414L76.7934 215.952L81.9284 203.628L78.236 202.09ZM73.1313 214.345C72.9712 214.692 72.7429 214.96 72.4158 215.178L74.6346 218.506C75.5715 217.882 76.2912 217.044 76.7631 216.021L73.1313 214.345ZM72.4514 215.155C72.2168 215.304 71.9364 215.395 71.5502 215.395V219.395C72.6386 219.395 73.6749 219.117 74.5989 218.529L72.4514 215.155ZM82.8472 198.302H104.177V194.302H82.8472V198.302ZM106.024 195.535L95.3592 169.86L91.6652 171.394L102.33 197.069L106.024 195.535ZM91.6652 169.86L81.0002 195.535L84.6942 197.069L95.3592 171.394L91.6652 169.86ZM146.691 213.761L144.842 214.523L144.856 214.558L144.872 214.592L146.691 213.761ZM127.178 166.44L125.305 167.142L125.317 167.173L125.329 167.202L127.178 166.44ZM127.889 162.49L129.303 163.904L129.331 163.876L129.359 163.847L127.889 162.49ZM132.471 162.174L131.204 163.722L131.28 163.784L131.362 163.838L132.471 162.174ZM133.893 163.912L135.749 163.168L135.74 163.146L135.731 163.124L133.893 163.912ZM152.458 210.206L150.602 210.95L152.458 215.579L154.314 210.95L152.458 210.206ZM171.023 163.912L169.185 163.124L169.175 163.146L169.167 163.168L171.023 163.912ZM172.366 162.174L173.542 163.791L173.554 163.783L173.566 163.774L172.366 162.174ZM177.027 162.49L175.557 163.847L175.584 163.876L175.613 163.904L177.027 162.49ZM177.738 166.44L179.587 167.202L179.599 167.173L179.611 167.142L177.738 166.44ZM158.225 213.761L160.044 214.592L160.06 214.558L160.074 214.523L158.225 213.761ZM151.589 215.395C150.91 215.395 150.386 215.214 149.937 214.88C149.463 214.529 148.965 213.927 148.51 212.93L144.872 214.592C145.523 216.018 146.394 217.233 147.553 218.093C148.736 218.971 150.108 219.395 151.589 219.395V215.395ZM148.54 212.999L129.027 165.678L125.329 167.202L144.842 214.523L148.54 212.999ZM129.051 165.738C128.981 165.553 128.941 165.344 128.941 165.097H124.941C124.941 165.798 125.059 166.485 125.305 167.142L129.051 165.738ZM128.941 165.097C128.941 164.388 129.131 164.076 129.303 163.904L126.475 161.076C125.383 162.168 124.941 163.594 124.941 165.097H128.941ZM129.359 163.847C129.541 163.649 129.835 163.463 130.496 163.463V159.463C128.945 159.463 127.501 159.962 126.419 161.133L129.359 163.847ZM130.496 163.463C130.764 163.463 130.977 163.535 131.204 163.722L133.737 160.626C132.807 159.865 131.703 159.463 130.496 159.463V163.463ZM131.362 163.838C131.652 164.032 131.882 164.298 132.055 164.7L135.731 163.124C135.271 162.051 134.554 161.159 133.58 160.51L131.362 163.838ZM132.037 164.656L150.602 210.95L154.314 209.462L135.749 163.168L132.037 164.656ZM154.314 210.95L172.879 164.656L169.167 163.168L150.602 209.462L154.314 210.95ZM172.861 164.7C173.053 164.253 173.288 163.976 173.542 163.791L171.19 160.557C170.285 161.214 169.625 162.096 169.185 163.124L172.861 164.7ZM173.566 163.774C173.878 163.54 174.147 163.463 174.42 163.463V159.463C173.218 159.463 172.118 159.86 171.166 160.574L173.566 163.774ZM174.42 163.463C175.081 163.463 175.375 163.649 175.557 163.847L178.497 161.133C177.415 159.962 175.971 159.463 174.42 159.463V163.463ZM175.613 163.904C175.785 164.076 175.975 164.388 175.975 165.097H179.975C179.975 163.594 179.533 162.168 178.441 161.076L175.613 163.904ZM175.975 165.097C175.975 165.344 175.935 165.553 175.865 165.738L179.611 167.142C179.857 166.485 179.975 165.798 179.975 165.097H175.975ZM175.889 165.678L156.376 212.999L160.074 214.523L179.587 167.202L175.889 165.678ZM156.406 212.93C155.951 213.927 155.453 214.529 154.979 214.88C154.53 215.214 154.006 215.395 153.327 215.395V219.395C154.807 219.395 156.179 218.971 157.363 218.093C158.522 217.233 159.393 216.018 160.044 214.592L156.406 212.93ZM153.327 215.395H151.589V219.395H153.327V215.395ZM194.117 216.368L195.532 214.954L194.117 216.368ZM194.117 162.569L195.532 163.983L195.558 163.957L195.583 163.93L194.117 162.569ZM199.173 162.569L197.708 163.93L197.758 163.984L197.813 164.035L199.173 162.569ZM199.173 216.368L197.813 214.902L197.785 214.928L197.759 214.954L199.173 216.368ZM196.645 215.395C196.155 215.395 195.827 215.25 195.532 214.954L192.703 217.782C193.777 218.856 195.134 219.395 196.645 219.395V215.395ZM195.532 214.954C195.236 214.658 195.09 214.33 195.09 213.84H191.09C191.09 215.351 191.63 216.709 192.703 217.782L195.532 214.954ZM195.09 213.84V165.097H191.09V213.84H195.09ZM195.09 165.097C195.09 164.607 195.236 164.279 195.532 163.983L192.703 161.155C191.63 162.228 191.09 163.586 191.09 165.097H195.09ZM195.583 163.93C195.892 163.598 196.204 163.463 196.645 163.463V159.463C195.085 159.463 193.713 160.066 192.652 161.208L195.583 163.93ZM196.645 163.463C197.087 163.463 197.399 163.598 197.708 163.93L200.639 161.208C199.578 160.066 198.206 159.463 196.645 159.463V163.463ZM197.813 164.035C198.145 164.343 198.279 164.656 198.279 165.097H202.279C202.279 163.537 201.677 162.164 200.534 161.103L197.813 164.035ZM198.279 165.097V213.84H202.279V165.097H198.279ZM198.279 213.84C198.279 214.281 198.145 214.594 197.813 214.902L200.534 217.834C201.677 216.773 202.279 215.4 202.279 213.84H198.279ZM197.759 214.954C197.463 215.25 197.136 215.395 196.645 215.395V219.395C198.157 219.395 199.514 218.856 200.588 217.782L197.759 214.954Z" fill="white"/>
<g filter="url(#filter1_d_0_161)">
<path d="M272 102H192C179.85 102 170 92.1503 170 80V0L272 102Z" fill="url(#paint2_linear_0_161)"/>
</g>
</g>
<defs>
<filter id="filter0_f_0_161" x="9" y="110" width="256" height="162" filterUnits="userSpaceOnUse" color-interpolation-filters="sRGB">
<feFlood flood-opacity="0" result="BackgroundImageFix"/>
<feBlend mode="normal" in="SourceGraphic" in2="BackgroundImageFix" result="shape"/>
<feGaussianBlur stdDeviation="19.5" result="effect1_foregroundBlur_0_161"/>
</filter>
<filter id="filter1_d_0_161" x="147" y="-24" width="152" height="152" filterUnits="userSpaceOnUse" color-interpolation-filters="sRGB">
<feFlood flood-opacity="0" result="BackgroundImageFix"/>
<feColorMatrix in="SourceAlpha" type="matrix" values="0 0 0 0 0 0 0 0 0 0 0 0 0 0 0 0 0 0 127 0" result="hardAlpha"/>
<feOffset dx="2" dy="1"/>
<feGaussianBlur stdDeviation="12.5"/>
<feColorMatrix type="matrix" values="0 0 0 0 0 0 0 0 0 0 0 0 0 0 0 0 0 0 0.33 0"/>
<feBlend mode="normal" in2="BackgroundImageFix" result="effect1_dropShadow_0_161"/>
<feBlend mode="normal" in="SourceGraphic" in2="effect1_dropShadow_0_161" result="shape"/>
</filter>
<linearGradient id="paint0_linear_0_161" x1="136" y1="0" x2="136" y2="308" gradientUnits="userSpaceOnUse">
<stop stop-color="#FF7979"/>
<stop offset="1" stop-color="#E85555"/>
</linearGradient>
<linearGradient id="paint1_linear_0_161" x1="136" y1="0" x2="136" y2="308" gradientUnits="userSpaceOnUse">
<stop stop-color="#CB74F4"/>
<stop offset="0.942892" stop-color="#A849F3"/>
</linearGradient>
<linearGradient id="paint2_linear_0_161" x1="221" y1="0" x2="221" y2="102" gradientUnits="userSpaceOnUse">
<stop stop-color="#B051E0"/>
<stop offset="1" stop-color="#952BCB"/>
</linearGradient>
</defs>
</svg>
