<svg width="272" height="308" viewBox="0 0 272 308" fill="none" xmlns="http://www.w3.org/2000/svg">
<mask id="mask0_8_249" style="mask-type:alpha" maskUnits="userSpaceOnUse" x="0" y="0" width="272" height="308">
<path d="M250 308H22C9.84974 308 0 298.15 0 286V22C0 9.84974 9.84974 0 22 0H170L272 102V286C272 298.15 262.15 308 250 308Z" fill="url(#paint0_linear_8_249)"/>
</mask>
<g mask="url(#mask0_8_249)">
<path d="M250 308H22C9.84974 308 0 298.15 0 286V22C0 9.84974 9.84974 0 22 0H170L272 102V286C272 298.15 262.15 308 250 308Z" fill="url(#paint1_linear_8_249)"/>
<g filter="url(#filter0_f_8_249)">
<rect x="48" y="149" width="178" height="84" fill="#5552E9" fill-opacity="0.39" style="mix-blend-mode:darken"/>
</g>
<path d="M97.3536 217.79C91.9289 217.79 87.1099 216.605 82.8966 214.235C78.6832 211.812 75.4179 208.468 73.1006 204.202C70.7832 199.883 69.6246 194.985 69.6246 189.508C69.6246 183.925 70.8359 178.975 73.2586 174.656C75.6812 170.337 78.9729 166.993 83.1336 164.623C87.3469 162.253 92.0079 161.068 97.1166 161.068C101.225 161.068 104.806 161.568 107.861 162.569C110.968 163.57 113.944 164.965 116.788 166.756C117.209 166.967 117.578 167.335 117.894 167.862C118.21 168.389 118.368 168.968 118.368 169.6C118.368 170.495 118.052 171.259 117.42 171.891C116.84 172.523 116.05 172.839 115.05 172.839C114.47 172.839 113.917 172.707 113.391 172.444C110.915 170.969 108.44 169.863 105.965 169.126C103.489 168.389 100.803 168.02 97.9066 168.02C93.9039 168.02 90.2962 168.863 87.0836 170.548C83.8709 172.233 81.3429 174.709 79.4996 177.974C77.7089 181.187 76.8136 185.031 76.8136 189.508C76.8136 193.616 77.6562 197.303 79.3416 200.568C81.0796 203.781 83.5549 206.335 86.7676 208.231C90.0329 210.074 93.8776 210.996 98.3016 210.996C103.252 210.996 107.861 209.837 112.127 207.52V193.221H99.0916C98.1962 193.221 97.4326 192.905 96.8006 192.273C96.1686 191.641 95.8526 190.877 95.8526 189.982C95.8526 189.087 96.1686 188.323 96.8006 187.691C97.4326 187.059 98.1962 186.743 99.0916 186.743H114.655C115.708 186.743 116.603 187.112 117.341 187.849C118.078 188.586 118.447 189.482 118.447 190.535V208.468C118.447 209.574 118.157 210.575 117.578 211.47C117.051 212.313 116.34 212.945 115.445 213.366C109.546 216.315 103.516 217.79 97.3536 217.79ZM141.818 217.395C140.817 217.395 139.974 217.053 139.29 216.368C138.605 215.683 138.263 214.841 138.263 213.84V165.097C138.263 164.096 138.605 163.254 139.29 162.569C139.974 161.832 140.817 161.463 141.818 161.463C142.818 161.463 143.661 161.832 144.346 162.569C145.083 163.254 145.452 164.096 145.452 165.097V213.84C145.452 214.841 145.083 215.683 144.346 216.368C143.661 217.053 142.818 217.395 141.818 217.395ZM169.875 217.395C168.874 217.395 168.032 217.053 167.347 216.368C166.662 215.683 166.32 214.841 166.32 213.84V165.492C166.32 164.491 166.662 163.649 167.347 162.964C168.032 162.227 168.874 161.858 169.875 161.858H200.606C201.554 161.858 202.344 162.2 202.976 162.885C203.661 163.517 204.003 164.307 204.003 165.255C204.003 166.203 203.661 166.993 202.976 167.625C202.344 168.257 201.554 168.573 200.606 168.573H173.509V186.032H197.841C198.789 186.032 199.579 186.374 200.211 187.059C200.896 187.691 201.238 188.481 201.238 189.429C201.238 190.377 200.896 191.167 200.211 191.799C199.579 192.431 198.789 192.747 197.841 192.747H173.509V213.84C173.509 214.841 173.14 215.683 172.403 216.368C171.718 217.053 170.876 217.395 169.875 217.395Z" fill="white"/>
<path d="M82.8966 214.235L81.8996 215.969L81.9078 215.974L81.916 215.978L82.8966 214.235ZM73.1006 204.202L71.3382 205.148L71.3431 205.157L73.1006 204.202ZM73.2586 174.656L75.0029 175.635L73.2586 174.656ZM83.1336 164.623L82.153 162.88L82.1437 162.885L83.1336 164.623ZM107.861 162.569L107.238 164.47L107.248 164.473L107.861 162.569ZM116.788 166.756L115.722 168.448L115.805 168.501L115.893 168.545L116.788 166.756ZM117.894 167.862L116.179 168.891L116.179 168.891L117.894 167.862ZM117.42 171.891L116.005 170.477L115.975 170.508L115.945 170.54L117.42 171.891ZM113.391 172.444L112.367 174.162L112.43 174.2L112.496 174.233L113.391 172.444ZM105.965 169.126L106.536 167.209H106.536L105.965 169.126ZM87.0836 170.548L88.0127 172.319L88.0127 172.319L87.0836 170.548ZM79.4996 177.974L77.7579 176.991L77.7526 177L79.4996 177.974ZM79.3416 200.568L77.5643 201.485L77.5732 201.503L77.5825 201.52L79.3416 200.568ZM86.7676 208.231L85.7511 209.953L85.7676 209.963L85.7844 209.973L86.7676 208.231ZM112.127 207.52L113.081 209.277L114.127 208.71V207.52H112.127ZM112.127 193.221H114.127V191.221H112.127V193.221ZM96.8006 192.273L95.3864 193.687L96.8006 192.273ZM96.8006 187.691L95.3864 186.277L96.8006 187.691ZM117.578 211.47L115.898 210.383L115.89 210.397L115.882 210.41L117.578 211.47ZM115.445 213.366L114.593 211.556L114.571 211.566L114.55 211.577L115.445 213.366ZM97.3536 215.79C92.2296 215.79 87.7559 214.674 83.8771 212.492L81.916 215.978C86.4639 218.536 91.6282 219.79 97.3536 219.79V215.79ZM83.8935 212.501C80.0005 210.263 76.9986 207.188 74.858 203.247L71.3431 205.157C73.8372 209.748 77.366 213.362 81.8996 215.969L83.8935 212.501ZM74.8629 203.256C72.7192 199.261 71.6246 194.695 71.6246 189.508H67.6246C67.6246 195.276 68.8473 200.505 71.3383 205.148L74.8629 203.256ZM71.6246 189.508C71.6246 184.224 72.7683 179.618 75.0029 175.635L71.5143 173.677C68.9035 178.332 67.6246 183.627 67.6246 189.508H71.6246ZM75.0029 175.635C77.2541 171.621 80.2897 168.545 84.1235 166.361L82.1437 162.885C77.6561 165.441 74.1084 169.053 71.5143 173.677L75.0029 175.635ZM84.1141 166.366C88.0109 164.174 92.3312 163.068 97.1166 163.068V159.068C91.6846 159.068 86.6829 160.332 82.1531 162.88L84.1141 166.366ZM97.1166 163.068C101.069 163.068 104.431 163.55 107.238 164.47L108.483 160.668C105.181 159.587 101.38 159.068 97.1166 159.068V163.068ZM107.248 164.473C110.191 165.421 113.015 166.744 115.722 168.448L117.853 165.064C114.872 163.186 111.745 161.719 108.474 160.665L107.248 164.473ZM115.893 168.545C115.894 168.545 115.9 168.548 115.911 168.556C115.923 168.565 115.941 168.58 115.966 168.605C116.016 168.655 116.09 168.744 116.179 168.891L119.609 166.833C119.155 166.078 118.533 165.392 117.682 164.967L115.893 168.545ZM116.179 168.891C116.302 169.098 116.368 169.319 116.368 169.6H120.368C120.368 168.617 120.117 167.68 119.609 166.833L116.179 168.891ZM116.368 169.6C116.368 169.966 116.262 170.221 116.005 170.477L118.834 173.305C119.842 172.297 120.368 171.025 120.368 169.6H116.368ZM115.945 170.54C115.809 170.688 115.592 170.839 115.05 170.839V174.839C116.508 174.839 117.872 174.358 118.894 173.242L115.945 170.54ZM115.05 170.839C114.786 170.839 114.539 170.782 114.285 170.655L112.496 174.233C113.296 174.633 114.155 174.839 115.05 174.839V170.839ZM114.414 170.726C111.813 169.176 109.186 167.999 106.536 167.209L105.394 171.043C107.693 171.728 110.018 172.763 112.367 174.162L114.414 170.726ZM106.536 167.209C103.854 166.41 100.973 166.02 97.9066 166.02V170.02C100.633 170.02 103.125 170.367 105.394 171.043L106.536 167.209ZM97.9066 166.02C93.6143 166.02 89.6825 166.926 86.1545 168.777L88.0127 172.319C90.91 170.799 94.1935 170.02 97.9066 170.02V166.02ZM86.1545 168.777C82.5888 170.647 79.7839 173.402 77.7579 176.991L81.2412 178.957C82.9019 176.015 85.153 173.819 88.0127 172.319L86.1545 168.777ZM77.7526 177C75.7635 180.569 74.8136 184.764 74.8136 189.508H78.8136C78.8136 185.299 79.6543 181.804 81.2465 178.948L77.7526 177ZM74.8136 189.508C74.8136 193.897 75.7161 197.904 77.5643 201.485L81.1188 199.651C79.5964 196.701 78.8136 193.335 78.8136 189.508H74.8136ZM77.5825 201.52C79.4972 205.059 82.2325 207.877 85.7511 209.953L87.7841 206.509C84.8774 204.793 82.6619 202.502 81.1007 199.616L77.5825 201.52ZM85.7844 209.973C89.3996 212.014 93.5953 212.996 98.3016 212.996V208.996C94.1599 208.996 90.6662 208.135 87.7508 206.489L85.7844 209.973ZM98.3016 212.996C103.579 212.996 108.516 211.757 113.081 209.277L111.172 205.763C107.205 207.917 102.926 208.996 98.3016 208.996V212.996ZM114.127 207.52V193.221H110.127V207.52H114.127ZM112.127 191.221H99.0916V195.221H112.127V191.221ZM99.0916 191.221C98.7256 191.221 98.471 191.115 98.2148 190.859L95.3864 193.687C96.3942 194.695 97.6668 195.221 99.0916 195.221V191.221ZM98.2148 190.859C97.9586 190.603 97.8526 190.348 97.8526 189.982H93.8526C93.8526 191.407 94.3786 192.679 95.3864 193.687L98.2148 190.859ZM97.8526 189.982C97.8526 189.616 97.9586 189.361 98.2148 189.105L95.3864 186.277C94.3786 187.285 93.8526 188.557 93.8526 189.982H97.8526ZM98.2148 189.105C98.471 188.849 98.7256 188.743 99.0916 188.743V184.743C97.6668 184.743 96.3942 185.269 95.3864 186.277L98.2148 189.105ZM99.0916 188.743H114.655V184.743H99.0916V188.743ZM114.655 188.743C115.184 188.743 115.568 188.905 115.926 189.263L118.755 186.435C117.638 185.318 116.232 184.743 114.655 184.743V188.743ZM115.926 189.263C116.284 189.621 116.447 190.006 116.447 190.535H120.447C120.447 188.957 119.871 187.551 118.755 186.435L115.926 189.263ZM116.447 190.535V208.468H120.447V190.535H116.447ZM116.447 208.468C116.447 209.204 116.26 209.824 115.898 210.383L119.257 212.557C120.054 211.325 120.447 209.944 120.447 208.468H116.447ZM115.882 210.41C115.558 210.928 115.139 211.299 114.593 211.556L116.296 215.176C117.541 214.59 118.544 213.697 119.274 212.53L115.882 210.41ZM114.55 211.577C108.909 214.398 103.184 215.79 97.3536 215.79V219.79C103.848 219.79 110.183 218.233 116.339 215.155L114.55 211.577ZM139.29 216.368L140.704 214.954L139.29 216.368ZM139.29 162.569L140.704 163.983L140.73 163.957L140.755 163.93L139.29 162.569ZM144.346 162.569L142.88 163.93L142.93 163.984L142.985 164.035L144.346 162.569ZM144.346 216.368L142.985 214.902L142.958 214.928L142.931 214.954L144.346 216.368ZM141.818 215.395C141.328 215.395 141 215.25 140.704 214.954L137.875 217.782C138.949 218.856 140.306 219.395 141.818 219.395V215.395ZM140.704 214.954C140.408 214.658 140.263 214.33 140.263 213.84H136.263C136.263 215.351 136.802 216.709 137.875 217.782L140.704 214.954ZM140.263 213.84V165.097H136.263V213.84H140.263ZM140.263 165.097C140.263 164.607 140.408 164.279 140.704 163.983L137.875 161.155C136.802 162.228 136.263 163.586 136.263 165.097H140.263ZM140.755 163.93C141.064 163.598 141.377 163.463 141.818 163.463V159.463C140.257 159.463 138.885 160.066 137.824 161.208L140.755 163.93ZM141.818 163.463C142.259 163.463 142.571 163.598 142.88 163.93L145.811 161.208C144.75 160.066 143.378 159.463 141.818 159.463V163.463ZM142.985 164.035C143.317 164.343 143.452 164.656 143.452 165.097H147.452C147.452 163.537 146.849 162.164 145.707 161.103L142.985 164.035ZM143.452 165.097V213.84H147.452V165.097H143.452ZM143.452 213.84C143.452 214.281 143.317 214.594 142.985 214.902L145.707 217.834C146.849 216.773 147.452 215.4 147.452 213.84H143.452ZM142.931 214.954C142.636 215.25 142.308 215.395 141.818 215.395V219.395C143.329 219.395 144.686 218.856 145.76 217.782L142.931 214.954ZM167.347 216.368L168.761 214.954L167.347 216.368ZM167.347 162.964L168.761 164.378L168.787 164.352L168.813 164.325L167.347 162.964ZM202.976 162.885L201.506 164.242L201.561 164.3L201.619 164.355L202.976 162.885ZM202.976 167.625L201.619 166.155L201.59 166.183L201.562 166.211L202.976 167.625ZM173.509 168.573V166.573H171.509V168.573H173.509ZM173.509 186.032H171.509V188.032H173.509V186.032ZM200.211 187.059L198.741 188.416L198.796 188.474L198.854 188.529L200.211 187.059ZM200.211 191.799L198.854 190.329L198.825 190.357L198.797 190.385L200.211 191.799ZM173.509 192.747V190.747H171.509V192.747H173.509ZM172.403 216.368L171.042 214.902L171.015 214.928L170.989 214.954L172.403 216.368ZM169.875 215.395C169.385 215.395 169.057 215.25 168.761 214.954L165.933 217.782C167.006 218.856 168.364 219.395 169.875 219.395V215.395ZM168.761 214.954C168.465 214.658 168.32 214.33 168.32 213.84H164.32C164.32 215.351 164.859 216.709 165.933 217.782L168.761 214.954ZM168.32 213.84V165.492H164.32V213.84H168.32ZM168.32 165.492C168.32 165.002 168.465 164.674 168.761 164.378L165.933 161.55C164.859 162.623 164.32 163.981 164.32 165.492H168.32ZM168.813 164.325C169.121 163.993 169.434 163.858 169.875 163.858V159.858C168.315 159.858 166.942 160.461 165.881 161.603L168.813 164.325ZM169.875 163.858H200.606V159.858H169.875V163.858ZM200.606 163.858C201.007 163.858 201.26 163.975 201.506 164.242L204.446 161.528C203.428 160.426 202.101 159.858 200.606 159.858V163.858ZM201.619 164.355C201.886 164.601 202.003 164.854 202.003 165.255H206.003C206.003 163.76 205.435 162.433 204.333 161.415L201.619 164.355ZM202.003 165.255C202.003 165.656 201.886 165.909 201.619 166.155L204.333 169.095C205.435 168.077 206.003 166.75 206.003 165.255H202.003ZM201.562 166.211C201.329 166.443 201.059 166.573 200.606 166.573V170.573C202.049 170.573 203.359 170.071 204.39 169.039L201.562 166.211ZM200.606 166.573H173.509V170.573H200.606V166.573ZM171.509 168.573V186.032H175.509V168.573H171.509ZM173.509 188.032H197.841V184.032H173.509V188.032ZM197.841 188.032C198.242 188.032 198.495 188.149 198.741 188.416L201.681 185.702C200.663 184.6 199.336 184.032 197.841 184.032V188.032ZM198.854 188.529C199.121 188.775 199.238 189.028 199.238 189.429H203.238C203.238 187.934 202.67 186.607 201.568 185.589L198.854 188.529ZM199.238 189.429C199.238 189.83 199.121 190.083 198.854 190.329L201.568 193.269C202.67 192.251 203.238 190.924 203.238 189.429H199.238ZM198.797 190.385C198.564 190.617 198.294 190.747 197.841 190.747V194.747C199.284 194.747 200.594 194.245 201.625 193.213L198.797 190.385ZM197.841 190.747H173.509V194.747H197.841V190.747ZM171.509 192.747V213.84H175.509V192.747H171.509ZM171.509 213.84C171.509 214.281 171.374 214.594 171.042 214.902L173.764 217.834C174.906 216.773 175.509 215.4 175.509 213.84H171.509ZM170.989 214.954C170.693 215.25 170.365 215.395 169.875 215.395V219.395C171.386 219.395 172.744 218.856 173.817 217.782L170.989 214.954Z" fill="white"/>
<g filter="url(#filter1_d_8_249)">
<path d="M272 102H192C179.85 102 170 92.1503 170 80V0L272 102Z" fill="url(#paint2_linear_8_249)"/>
</g>
</g>
<defs>
<filter id="filter0_f_8_249" x="9" y="110" width="256" height="162" filterUnits="userSpaceOnUse" color-interpolation-filters="sRGB">
<feFlood flood-opacity="0" result="BackgroundImageFix"/>
<feBlend mode="normal" in="SourceGraphic" in2="BackgroundImageFix" result="shape"/>
<feGaussianBlur stdDeviation="19.5" result="effect1_foregroundBlur_8_249"/>
</filter>
<filter id="filter1_d_8_249" x="147" y="-24" width="152" height="152" filterUnits="userSpaceOnUse" color-interpolation-filters="sRGB">
<feFlood flood-opacity="0" result="BackgroundImageFix"/>
<feColorMatrix in="SourceAlpha" type="matrix" values="0 0 0 0 0 0 0 0 0 0 0 0 0 0 0 0 0 0 127 0" result="hardAlpha"/>
<feOffset dx="2" dy="1"/>
<feGaussianBlur stdDeviation="12.5"/>
<feColorMatrix type="matrix" values="0 0 0 0 0 0 0 0 0 0 0 0 0 0 0 0 0 0 0.33 0"/>
<feBlend mode="normal" in2="BackgroundImageFix" result="effect1_dropShadow_8_249"/>
<feBlend mode="normal" in="SourceGraphic" in2="effect1_dropShadow_8_249" result="shape"/>
</filter>
<linearGradient id="paint0_linear_8_249" x1="136" y1="0" x2="136" y2="308" gradientUnits="userSpaceOnUse">
<stop stop-color="#FF7979"/>
<stop offset="1" stop-color="#E85555"/>
</linearGradient>
<linearGradient id="paint1_linear_8_249" x1="136" y1="0" x2="136" y2="308" gradientUnits="userSpaceOnUse">
<stop stop-color="#A28AFF"/>
<stop offset="1" stop-color="#7655FB"/>
</linearGradient>
<linearGradient id="paint2_linear_8_249" x1="221" y1="0" x2="221" y2="102" gradientUnits="userSpaceOnUse">
<stop stop-color="#8A71F1"/>
<stop offset="1" stop-color="#5C39E9"/>
</linearGradient>
</defs>
</svg>
