<svg width="272" height="308" viewBox="0 0 272 308" fill="none" xmlns="http://www.w3.org/2000/svg">
<rect width="272" height="308" fill="#E5E5E5"/>
<mask id="mask0_0_192" style="mask-type:alpha" maskUnits="userSpaceOnUse" x="0" y="0" width="272" height="308">
<path d="M250 308H22C9.84974 308 0 298.15 0 286V22C0 9.84974 9.84974 0 22 0H170L272 102V286C272 298.15 262.15 308 250 308Z" fill="url(#paint0_linear_0_192)"/>
</mask>
<g mask="url(#mask0_0_192)">
<path d="M250 308H22C9.84974 308 0 298.15 0 286V22C0 9.84974 9.84974 0 22 0H170L272 102V286C272 298.15 262.15 308 250 308Z" fill="url(#paint1_linear_0_192)"/>
<g opacity="0.2" filter="url(#filter0_f_0_192)">
<rect x="48" y="149" width="178" height="84" fill="#780AAF" style="mix-blend-mode:darken"/>
</g>
<path d="M49.6499 217.395C48.6492 217.395 47.8066 217.053 47.1219 216.368C46.4372 215.683 46.0949 214.841 46.0949 213.84V166.677C46.0949 165.255 46.5952 164.044 47.5959 163.043C48.5966 161.99 49.8079 161.463 51.2299 161.463H53.8369C54.8902 161.463 55.8382 161.779 56.6809 162.411C57.5762 163.043 58.2346 163.833 58.6559 164.781L76.5889 209.495L94.5219 164.781C94.9433 163.833 95.5753 163.043 96.4179 162.411C97.3133 161.779 98.2876 161.463 99.3409 161.463H101.948C103.37 161.463 104.581 161.99 105.582 163.043C106.583 164.044 107.083 165.255 107.083 166.677V213.84C107.083 214.841 106.741 215.683 106.056 216.368C105.371 217.053 104.529 217.395 103.528 217.395C102.527 217.395 101.658 217.053 100.921 216.368C100.236 215.683 99.8939 214.841 99.8939 213.84V168.968L81.6449 214.077C81.2236 215.078 80.5389 215.894 79.5909 216.526C78.6956 217.105 77.6949 217.395 76.5889 217.395C75.4829 217.395 74.4559 217.105 73.5079 216.526C72.6126 215.894 71.9543 215.078 71.5329 214.077L53.2839 168.968V213.84C53.2839 214.841 52.9152 215.683 52.1779 216.368C51.4932 217.053 50.6506 217.395 49.6499 217.395ZM131.48 217.395C130.479 217.395 129.636 217.053 128.952 216.368C128.267 215.683 127.925 214.841 127.925 213.84V165.097C127.925 164.096 128.267 163.254 128.952 162.569C129.636 161.832 130.479 161.463 131.48 161.463C132.48 161.463 133.323 161.832 134.008 162.569C134.745 163.254 135.114 164.096 135.114 165.097V190.219L162.132 162.727C162.869 161.884 163.764 161.463 164.818 161.463C165.713 161.463 166.477 161.779 167.109 162.411C167.793 162.99 168.136 163.728 168.136 164.623C168.136 165.676 167.846 166.493 167.267 167.072L149.018 185.242L169.953 211.628C170.532 212.365 170.822 213.129 170.822 213.919C170.874 214.867 170.558 215.683 169.874 216.368C169.189 217.053 168.346 217.395 167.346 217.395C166.134 217.395 165.186 216.921 164.502 215.973L144.12 189.982L135.114 199.067V213.84C135.114 214.841 134.745 215.683 134.008 216.368C133.323 217.053 132.48 217.395 131.48 217.395ZM205.26 217.395C203.1 217.395 201.468 216.184 200.362 213.761L180.849 166.44C180.691 166.019 180.612 165.571 180.612 165.097C180.612 163.991 180.928 163.122 181.56 162.49C182.192 161.805 183.061 161.463 184.167 161.463C184.904 161.463 185.562 161.7 186.142 162.174C186.774 162.595 187.248 163.175 187.564 163.912L206.129 210.206L224.694 163.912C225.01 163.175 225.457 162.595 226.037 162.174C226.669 161.7 227.353 161.463 228.091 161.463C229.197 161.463 230.066 161.805 230.698 162.49C231.33 163.122 231.646 163.991 231.646 165.097C231.646 165.571 231.567 166.019 231.409 166.44L211.896 213.761C210.79 216.184 209.157 217.395 206.998 217.395H205.26Z" fill="white"/>
<path d="M47.1219 216.368L48.5361 214.954H48.5361L47.1219 216.368ZM47.5959 163.043L49.0101 164.457L49.0283 164.439L49.0459 164.42L47.5959 163.043ZM56.6809 162.411L55.4809 164.011L55.504 164.028L55.5275 164.045L56.6809 162.411ZM58.6559 164.781L60.5122 164.037L60.4985 164.002L60.4835 163.969L58.6559 164.781ZM76.5889 209.495L74.7326 210.239L76.5889 214.868L78.4452 210.239L76.5889 209.495ZM94.5219 164.781L92.6943 163.969L92.6793 164.002L92.6656 164.037L94.5219 164.781ZM96.4179 162.411L95.2646 160.777L95.241 160.794L95.2179 160.811L96.4179 162.411ZM105.582 163.043L104.132 164.42L104.15 164.439L104.168 164.457L105.582 163.043ZM106.056 216.368L107.47 217.782H107.47L106.056 216.368ZM100.921 216.368L99.5067 217.782L99.5329 217.808L99.56 217.834L100.921 216.368ZM99.8939 168.968H101.894L98.0399 168.218L99.8939 168.968ZM81.6449 214.077L83.4882 214.853L83.4937 214.84L83.4989 214.827L81.6449 214.077ZM79.5909 216.526L80.6774 218.205L80.6889 218.198L80.7003 218.19L79.5909 216.526ZM73.5079 216.526L72.3546 218.16L72.4086 218.198L72.465 218.233L73.5079 216.526ZM71.5329 214.077L69.6789 214.827L69.6842 214.84L69.6896 214.853L71.5329 214.077ZM53.2839 168.968L55.1379 168.218L51.2839 168.968H53.2839ZM52.1779 216.368L50.817 214.902L50.7899 214.928L50.7637 214.954L52.1779 216.368ZM49.6499 215.395C49.1598 215.395 48.8319 215.25 48.5361 214.954L45.7077 217.782C46.7812 218.856 48.1387 219.395 49.6499 219.395V215.395ZM48.5361 214.954C48.2403 214.658 48.0949 214.33 48.0949 213.84H44.0949C44.0949 215.351 44.6342 216.709 45.7077 217.782L48.5361 214.954ZM48.0949 213.84V166.677H44.0949V213.84H48.0949ZM48.0949 166.677C48.0949 165.783 48.3866 165.081 49.0101 164.457L46.1817 161.629C44.8039 163.007 44.0949 164.727 44.0949 166.677H48.0949ZM49.0459 164.42C49.6783 163.755 50.3694 163.463 51.2299 163.463V159.463C49.2464 159.463 47.5149 160.224 46.1459 161.665L49.0459 164.42ZM51.2299 163.463H53.8369V159.463H51.2299V163.463ZM53.8369 163.463C54.4575 163.463 54.9844 163.639 55.4809 164.011L57.8809 160.811C56.6921 159.919 55.323 159.463 53.8369 159.463V163.463ZM55.5275 164.045C56.1455 164.481 56.5619 164.994 56.8283 165.593L60.4835 163.969C59.9073 162.672 59.007 161.605 57.8343 160.777L55.5275 164.045ZM56.7996 165.525L74.7326 210.239L78.4452 208.751L60.5122 164.037L56.7996 165.525ZM78.4452 210.239L96.3782 165.525L92.6656 164.037L74.7326 208.751L78.4452 210.239ZM96.3495 165.593C96.6301 164.962 97.0438 164.442 97.6179 164.011L95.2179 160.811C94.1067 161.644 93.2564 162.704 92.6943 163.969L96.3495 165.593ZM97.5713 164.045C98.1437 163.641 98.718 163.463 99.3409 163.463V159.463C97.8571 159.463 96.4828 159.917 95.2646 160.777L97.5713 164.045ZM99.3409 163.463H101.948V159.463H99.3409V163.463ZM101.948 163.463C102.808 163.463 103.5 163.755 104.132 164.42L107.032 161.665C105.663 160.224 103.931 159.463 101.948 159.463V163.463ZM104.168 164.457C104.791 165.081 105.083 165.783 105.083 166.677H109.083C109.083 164.727 108.374 163.007 106.996 161.629L104.168 164.457ZM105.083 166.677V213.84H109.083V166.677H105.083ZM105.083 213.84C105.083 214.33 104.938 214.658 104.642 214.954L107.47 217.782C108.544 216.709 109.083 215.351 109.083 213.84H105.083ZM104.642 214.954C104.346 215.25 104.018 215.395 103.528 215.395V219.395C105.039 219.395 106.397 218.856 107.47 217.782L104.642 214.954ZM103.528 215.395C103.035 215.395 102.651 215.246 102.282 214.902L99.56 217.834C100.665 218.86 102.019 219.395 103.528 219.395V215.395ZM102.335 214.954C102.039 214.658 101.894 214.33 101.894 213.84H97.8939C97.8939 215.351 98.4332 216.709 99.5067 217.782L102.335 214.954ZM101.894 213.84V168.968H97.8939V213.84H101.894ZM98.0399 168.218L79.7909 213.327L83.4989 214.827L101.748 169.718L98.0399 168.218ZM79.8017 213.301C79.5403 213.922 79.1201 214.436 78.4815 214.862L80.7003 218.19C81.9577 217.352 82.9069 216.234 83.4882 214.853L79.8017 213.301ZM78.5044 214.847C77.9452 215.209 77.3245 215.395 76.5889 215.395V219.395C78.0653 219.395 79.446 219.002 80.6774 218.205L78.5044 214.847ZM76.5889 215.395C75.8527 215.395 75.1863 215.208 74.5508 214.819L72.465 218.233C73.7255 219.003 75.1131 219.395 76.5889 219.395V215.395ZM74.6613 214.892C74.0686 214.474 73.6509 213.953 73.3762 213.301L69.6896 214.853C70.2576 216.202 71.1566 217.314 72.3546 218.16L74.6613 214.892ZM73.3869 213.327L55.1379 168.218L51.4299 169.718L69.6789 214.827L73.3869 213.327ZM51.2839 168.968V213.84H55.2839V168.968H51.2839ZM51.2839 213.84C51.2839 214.281 51.1494 214.594 50.817 214.902L53.5388 217.834C54.6811 216.773 55.2839 215.4 55.2839 213.84H51.2839ZM50.7637 214.954C50.4679 215.25 50.14 215.395 49.6499 215.395V219.395C51.1612 219.395 52.5186 218.856 53.5921 217.782L50.7637 214.954ZM128.952 216.368L130.366 214.954L128.952 216.368ZM128.952 162.569L130.366 163.983L130.392 163.957L130.417 163.93L128.952 162.569ZM134.008 162.569L132.542 163.93L132.593 163.984L132.647 164.035L134.008 162.569ZM135.114 190.219H133.114V195.107L136.54 191.621L135.114 190.219ZM162.132 162.727L163.558 164.129L163.599 164.088L163.637 164.044L162.132 162.727ZM167.109 162.411L165.695 163.825L165.753 163.884L165.817 163.938L167.109 162.411ZM167.267 167.072L168.678 168.489L168.681 168.486L167.267 167.072ZM149.018 185.242L147.607 183.825L146.34 185.085L147.451 186.485L149.018 185.242ZM169.953 211.628L171.525 210.392L171.519 210.385L169.953 211.628ZM170.822 213.919H168.822V213.975L168.825 214.03L170.822 213.919ZM169.874 216.368L171.288 217.782L169.874 216.368ZM164.502 215.973L166.123 214.802L166.1 214.77L166.076 214.739L164.502 215.973ZM144.12 189.982L145.694 188.748L144.295 186.964L142.699 188.574L144.12 189.982ZM135.114 199.067L133.693 197.659L133.114 198.244V199.067H135.114ZM134.008 216.368L132.647 214.902L132.62 214.928L132.594 214.954L134.008 216.368ZM131.48 215.395C130.99 215.395 130.662 215.25 130.366 214.954L127.538 217.782C128.611 218.856 129.968 219.395 131.48 219.395V215.395ZM130.366 214.954C130.07 214.658 129.925 214.33 129.925 213.84H125.925C125.925 215.351 126.464 216.709 127.538 217.782L130.366 214.954ZM129.925 213.84V165.097H125.925V213.84H129.925ZM129.925 165.097C129.925 164.607 130.07 164.279 130.366 163.983L127.538 161.155C126.464 162.228 125.925 163.586 125.925 165.097H129.925ZM130.417 163.93C130.726 163.598 131.039 163.463 131.48 163.463V159.463C129.919 159.463 128.547 160.066 127.486 161.208L130.417 163.93ZM131.48 163.463C131.921 163.463 132.234 163.598 132.542 163.93L135.473 161.208C134.413 160.066 133.04 159.463 131.48 159.463V163.463ZM132.647 164.035C132.979 164.343 133.114 164.656 133.114 165.097H137.114C137.114 163.537 136.511 162.164 135.369 161.103L132.647 164.035ZM133.114 165.097V190.219H137.114V165.097H133.114ZM136.54 191.621L163.558 164.129L160.705 161.325L133.687 188.817L136.54 191.621ZM163.637 164.044C164.022 163.604 164.381 163.463 164.818 163.463V159.463C163.148 159.463 161.717 160.164 160.627 161.41L163.637 164.044ZM164.818 163.463C165.184 163.463 165.438 163.569 165.695 163.825L168.523 160.997C167.515 159.989 166.242 159.463 164.818 159.463V163.463ZM165.817 163.938C166.053 164.138 166.136 164.317 166.136 164.623H170.136C170.136 163.138 169.533 161.843 168.401 160.884L165.817 163.938ZM166.136 164.623C166.136 165.304 165.958 165.552 165.853 165.658L168.681 168.486C169.734 167.433 170.136 166.048 170.136 164.623H166.136ZM165.856 165.655L147.607 183.825L150.429 186.659L168.678 168.489L165.856 165.655ZM147.451 186.485L168.386 212.871L171.519 210.385L150.584 183.999L147.451 186.485ZM168.38 212.864C168.736 213.317 168.822 213.657 168.822 213.919H172.822C172.822 212.601 172.328 211.414 171.525 210.392L168.38 212.864ZM168.825 214.03C168.845 214.397 168.751 214.662 168.46 214.954L171.288 217.782C172.366 216.704 172.904 215.337 172.819 213.808L168.825 214.03ZM168.46 214.954C168.164 215.25 167.836 215.395 167.346 215.395V219.395C168.857 219.395 170.214 218.856 171.288 217.782L168.46 214.954ZM167.346 215.395C166.749 215.395 166.416 215.208 166.123 214.802L162.88 217.144C163.957 218.634 165.519 219.395 167.346 219.395V215.395ZM166.076 214.739L145.694 188.748L142.546 191.216L162.928 217.207L166.076 214.739ZM142.699 188.574L133.693 197.659L136.534 200.475L145.54 191.39L142.699 188.574ZM133.114 199.067V213.84H137.114V199.067H133.114ZM133.114 213.84C133.114 214.281 132.979 214.594 132.647 214.902L135.369 217.834C136.511 216.773 137.114 215.4 137.114 213.84H133.114ZM132.594 214.954C132.298 215.25 131.97 215.395 131.48 215.395V219.395C132.991 219.395 134.348 218.856 135.422 217.782L132.594 214.954ZM200.362 213.761L198.513 214.523L198.527 214.558L198.542 214.592L200.362 213.761ZM180.849 166.44L178.976 167.142L178.987 167.173L179 167.202L180.849 166.44ZM181.56 162.49L182.974 163.904L183.002 163.876L183.029 163.847L181.56 162.49ZM186.142 162.174L184.875 163.722L184.951 163.784L185.032 163.838L186.142 162.174ZM187.564 163.912L189.42 163.168L189.411 163.146L189.402 163.124L187.564 163.912ZM206.129 210.206L204.272 210.95L206.129 215.579L207.985 210.95L206.129 210.206ZM224.694 163.912L222.855 163.124L222.846 163.146L222.837 163.168L224.694 163.912ZM226.037 162.174L227.213 163.791L227.225 163.783L227.237 163.774L226.037 162.174ZM230.698 162.49L229.228 163.847L229.255 163.876L229.283 163.904L230.698 162.49ZM231.409 166.44L233.258 167.202L233.27 167.173L233.281 167.142L231.409 166.44ZM211.896 213.761L213.715 214.592L213.73 214.558L213.745 214.523L211.896 213.761ZM205.26 215.395C204.581 215.395 204.057 215.214 203.607 214.88C203.134 214.529 202.636 213.927 202.181 212.93L198.542 214.592C199.193 216.018 200.065 217.233 201.224 218.093C202.407 218.971 203.779 219.395 205.26 219.395V215.395ZM202.211 212.999L182.698 165.678L179 167.202L198.513 214.523L202.211 212.999ZM182.721 165.738C182.652 165.553 182.612 165.344 182.612 165.097H178.612C178.612 165.798 178.729 166.485 178.976 167.142L182.721 165.738ZM182.612 165.097C182.612 164.388 182.802 164.076 182.974 163.904L180.145 161.076C179.053 162.168 178.612 163.594 178.612 165.097H182.612ZM183.029 163.847C183.212 163.649 183.505 163.463 184.167 163.463V159.463C182.616 159.463 181.171 159.962 180.09 161.133L183.029 163.847ZM184.167 163.463C184.435 163.463 184.647 163.535 184.875 163.722L187.408 160.626C186.477 159.865 185.373 159.463 184.167 159.463V163.463ZM185.032 163.838C185.323 164.032 185.553 164.298 185.725 164.7L189.402 163.124C188.942 162.051 188.224 161.159 187.251 160.51L185.032 163.838ZM185.707 164.656L204.272 210.95L207.985 209.462L189.42 163.168L185.707 164.656ZM207.985 210.95L226.55 164.656L222.837 163.168L204.272 209.462L207.985 210.95ZM226.532 164.7C226.723 164.253 226.959 163.976 227.213 163.791L224.86 160.557C223.956 161.214 223.296 162.096 222.855 163.124L226.532 164.7ZM227.237 163.774C227.549 163.54 227.818 163.463 228.091 163.463V159.463C226.889 159.463 225.788 159.86 224.837 160.574L227.237 163.774ZM228.091 163.463C228.752 163.463 229.045 163.649 229.228 163.847L232.167 161.133C231.086 159.962 229.641 159.463 228.091 159.463V163.463ZM229.283 163.904C229.455 164.076 229.646 164.388 229.646 165.097H233.646C233.646 163.594 233.204 162.168 232.112 161.076L229.283 163.904ZM229.646 165.097C229.646 165.344 229.605 165.553 229.536 165.738L233.281 167.142C233.528 166.485 233.646 165.798 233.646 165.097H229.646ZM229.56 165.678L210.047 212.999L213.745 214.523L233.258 167.202L229.56 165.678ZM210.076 212.93C209.621 213.927 209.124 214.529 208.65 214.88C208.2 215.214 207.676 215.395 206.998 215.395V219.395C208.478 219.395 209.85 218.971 211.033 218.093C212.192 217.233 213.064 216.018 213.715 214.592L210.076 212.93ZM206.998 215.395H205.26V219.395H206.998V215.395Z" fill="white"/>
<g filter="url(#filter1_d_0_192)">
<path d="M272 102H192C179.85 102 170 92.1503 170 80V0L272 102Z" fill="url(#paint2_linear_0_192)"/>
</g>
</g>
<defs>
<filter id="filter0_f_0_192" x="9" y="110" width="256" height="162" filterUnits="userSpaceOnUse" color-interpolation-filters="sRGB">
<feFlood flood-opacity="0" result="BackgroundImageFix"/>
<feBlend mode="normal" in="SourceGraphic" in2="BackgroundImageFix" result="shape"/>
<feGaussianBlur stdDeviation="19.5" result="effect1_foregroundBlur_0_192"/>
</filter>
<filter id="filter1_d_0_192" x="147" y="-24" width="152" height="152" filterUnits="userSpaceOnUse" color-interpolation-filters="sRGB">
<feFlood flood-opacity="0" result="BackgroundImageFix"/>
<feColorMatrix in="SourceAlpha" type="matrix" values="0 0 0 0 0 0 0 0 0 0 0 0 0 0 0 0 0 0 127 0" result="hardAlpha"/>
<feOffset dx="2" dy="1"/>
<feGaussianBlur stdDeviation="12.5"/>
<feColorMatrix type="matrix" values="0 0 0 0 0 0 0 0 0 0 0 0 0 0 0 0 0 0 0.33 0"/>
<feBlend mode="normal" in2="BackgroundImageFix" result="effect1_dropShadow_0_192"/>
<feBlend mode="normal" in="SourceGraphic" in2="effect1_dropShadow_0_192" result="shape"/>
</filter>
<linearGradient id="paint0_linear_0_192" x1="136" y1="0" x2="136" y2="308" gradientUnits="userSpaceOnUse">
<stop stop-color="#FF7979"/>
<stop offset="1" stop-color="#E85555"/>
</linearGradient>
<linearGradient id="paint1_linear_0_192" x1="136" y1="0" x2="136" y2="308" gradientUnits="userSpaceOnUse">
<stop stop-color="#CB74F4"/>
<stop offset="0.942892" stop-color="#A849F3"/>
</linearGradient>
<linearGradient id="paint2_linear_0_192" x1="221" y1="0" x2="221" y2="102" gradientUnits="userSpaceOnUse">
<stop stop-color="#B051E0"/>
<stop offset="1" stop-color="#952BCB"/>
</linearGradient>
</defs>
</svg>
