<svg width="378" height="414" viewBox="0 0 378 414" fill="none" xmlns="http://www.w3.org/2000/svg">
<g filter="url(#filter0_d_8_330)">
<mask id="mask0_8_330" style="mask-type:alpha" maskUnits="userSpaceOnUse" x="53" y="39" width="272" height="308">
<path d="M303 347H75C62.8497 347 53 337.15 53 325V61C53 48.8497 62.8497 39 75 39H223L325 141V325C325 337.15 315.15 347 303 347Z" fill="url(#paint0_linear_8_330)"/>
</mask>
<g mask="url(#mask0_8_330)">
<path d="M303 347H75C62.8497 347 53 337.15 53 325V61C53 48.8497 62.8497 39 75 39H223L325 141V325C325 337.15 315.15 347 303 347Z" fill="url(#paint1_linear_8_330)"/>
<g opacity="0.2" filter="url(#filter1_f_8_330)">
<rect x="101" y="188" width="178" height="84" fill="#780AAF" style="mix-blend-mode:darken"/>
</g>
<path d="M105.696 256.395C104.695 256.395 103.852 256.053 103.168 255.368C102.483 254.683 102.141 253.841 102.141 252.84V205.677C102.141 204.255 102.641 203.044 103.642 202.043C104.642 200.99 105.854 200.463 107.276 200.463H109.883C110.936 200.463 111.884 200.779 112.727 201.411C113.622 202.043 114.28 202.833 114.702 203.781L132.635 248.495L150.568 203.781C150.989 202.833 151.621 202.043 152.464 201.411C153.359 200.779 154.333 200.463 155.387 200.463H157.994C159.416 200.463 160.627 200.99 161.628 202.043C162.628 203.044 163.129 204.255 163.129 205.677V252.84C163.129 253.841 162.786 254.683 162.102 255.368C161.417 256.053 160.574 256.395 159.574 256.395C158.573 256.395 157.704 256.053 156.967 255.368C156.282 254.683 155.94 253.841 155.94 252.84V207.968L137.691 253.077C137.269 254.078 136.585 254.894 135.637 255.526C134.741 256.105 133.741 256.395 132.635 256.395C131.529 256.395 130.502 256.105 129.554 255.526C128.658 254.894 128 254.078 127.579 253.077L109.33 207.968V252.84C109.33 253.841 108.961 254.683 108.224 255.368C107.539 256.053 106.696 256.395 105.696 256.395ZM187.526 256.395C186.525 256.395 185.682 256.053 184.998 255.368C184.313 254.683 183.971 253.841 183.971 252.84V204.492C183.971 203.491 184.313 202.649 184.998 201.964C185.682 201.227 186.525 200.858 187.526 200.858H205.538C210.541 200.858 214.623 201.701 217.783 203.386C220.943 205.071 223.207 207.231 224.577 209.864C225.946 212.497 226.631 215.341 226.631 218.396C226.631 221.451 225.946 224.295 224.577 226.928C223.207 229.561 220.943 231.721 217.783 233.406C214.623 235.091 210.541 235.934 205.538 235.934H191.16V252.84C191.16 253.841 190.791 254.683 190.054 255.368C189.369 256.053 188.526 256.395 187.526 256.395ZM204.827 229.14C210.199 229.14 213.964 228.113 216.124 226.059C218.336 224.005 219.442 221.451 219.442 218.396C219.442 215.341 218.336 212.787 216.124 210.733C213.964 208.679 210.199 207.652 204.827 207.652H191.16V229.14H204.827ZM269.123 256.395C268.122 256.395 267.279 256.053 266.595 255.368C265.91 254.683 265.568 253.841 265.568 252.84V242.096H241.473C240.209 242.096 239.129 241.675 238.234 240.832C237.338 239.937 236.891 238.857 236.891 237.593V236.882C236.891 235.776 237.207 234.828 237.839 234.038L262.645 202.359C263.066 201.78 263.619 201.332 264.304 201.016C265.041 200.647 265.805 200.463 266.595 200.463H268.175C269.544 200.463 270.65 200.911 271.493 201.806C272.335 202.649 272.757 203.728 272.757 205.045V235.697H278.761C279.656 235.697 280.42 236.013 281.052 236.645C281.684 237.277 282 238.041 282 238.936C282 239.831 281.684 240.595 281.052 241.227C280.42 241.806 279.656 242.096 278.761 242.096H272.757V252.84C272.757 253.841 272.388 254.683 271.651 255.368C270.966 256.053 270.123 256.395 269.123 256.395ZM244.554 235.697H265.568V208.6L244.554 235.697Z" fill="white"/>
<path d="M103.168 255.368L104.582 253.954H104.582L103.168 255.368ZM103.642 202.043L105.056 203.457L105.074 203.439L105.092 203.42L103.642 202.043ZM112.727 201.411L111.527 203.011L111.55 203.028L111.573 203.045L112.727 201.411ZM114.702 203.781L116.558 203.037L116.544 203.002L116.529 202.969L114.702 203.781ZM132.635 248.495L130.779 249.239L132.635 253.868L134.491 249.239L132.635 248.495ZM150.568 203.781L148.74 202.969L148.725 203.002L148.712 203.037L150.568 203.781ZM152.464 201.411L151.31 199.777L151.287 199.794L151.264 199.811L152.464 201.411ZM161.628 202.043L160.178 203.42L160.195 203.439L160.214 203.457L161.628 202.043ZM162.102 255.368L163.516 256.782H163.516L162.102 255.368ZM156.967 255.368L155.553 256.782L155.579 256.808L155.606 256.834L156.967 255.368ZM155.94 207.968H157.94L154.086 207.218L155.94 207.968ZM137.691 253.077L139.534 253.853L139.54 253.84L139.545 253.827L137.691 253.077ZM135.637 255.526L136.723 257.205L136.735 257.198L136.746 257.19L135.637 255.526ZM129.554 255.526L128.4 257.16L128.454 257.198L128.511 257.233L129.554 255.526ZM127.579 253.077L125.725 253.827L125.73 253.84L125.736 253.853L127.579 253.077ZM109.33 207.968L111.184 207.218L107.33 207.968H109.33ZM108.224 255.368L106.863 253.902L106.836 253.928L106.81 253.954L108.224 255.368ZM105.696 254.395C105.206 254.395 104.878 254.25 104.582 253.954L101.754 256.782C102.827 257.856 104.185 258.395 105.696 258.395V254.395ZM104.582 253.954C104.286 253.658 104.141 253.33 104.141 252.84H100.141C100.141 254.351 100.68 255.709 101.754 256.782L104.582 253.954ZM104.141 252.84V205.677H100.141V252.84H104.141ZM104.141 205.677C104.141 204.783 104.432 204.081 105.056 203.457L102.228 200.629C100.85 202.007 100.141 203.727 100.141 205.677H104.141ZM105.092 203.42C105.724 202.755 106.415 202.463 107.276 202.463V198.463C105.292 198.463 103.561 199.224 102.192 200.665L105.092 203.42ZM107.276 202.463H109.883V198.463H107.276V202.463ZM109.883 202.463C110.503 202.463 111.03 202.639 111.527 203.011L113.927 199.811C112.738 198.919 111.369 198.463 109.883 198.463V202.463ZM111.573 203.045C112.191 203.481 112.608 203.994 112.874 204.593L116.529 202.969C115.953 201.672 115.053 200.605 113.88 199.777L111.573 203.045ZM112.846 204.525L130.779 249.239L134.491 247.751L116.558 203.037L112.846 204.525ZM134.491 249.239L152.424 204.525L148.712 203.037L130.779 247.751L134.491 249.239ZM152.395 204.593C152.676 203.962 153.09 203.442 153.664 203.011L151.264 199.811C150.153 200.644 149.302 201.704 148.74 202.969L152.395 204.593ZM153.617 203.045C154.19 202.641 154.764 202.463 155.387 202.463V198.463C153.903 198.463 152.529 198.917 151.31 199.777L153.617 203.045ZM155.387 202.463H157.994V198.463H155.387V202.463ZM157.994 202.463C158.854 202.463 159.545 202.755 160.178 203.42L163.078 200.665C161.709 199.224 159.977 198.463 157.994 198.463V202.463ZM160.214 203.457C160.837 204.081 161.129 204.783 161.129 205.677H165.129C165.129 203.727 164.42 202.007 163.042 200.629L160.214 203.457ZM161.129 205.677V252.84H165.129V205.677H161.129ZM161.129 252.84C161.129 253.33 160.983 253.658 160.688 253.954L163.516 256.782C164.59 255.709 165.129 254.351 165.129 252.84H161.129ZM160.688 253.954C160.392 254.25 160.064 254.395 159.574 254.395V258.395C161.085 258.395 162.442 257.856 163.516 256.782L160.688 253.954ZM159.574 254.395C159.081 254.395 158.697 254.246 158.328 253.902L155.606 256.834C156.711 257.86 158.065 258.395 159.574 258.395V254.395ZM158.381 253.954C158.085 253.658 157.94 253.33 157.94 252.84H153.94C153.94 254.351 154.479 255.709 155.553 256.782L158.381 253.954ZM157.94 252.84V207.968H153.94V252.84H157.94ZM154.086 207.218L135.837 252.327L139.545 253.827L157.794 208.718L154.086 207.218ZM135.848 252.301C135.586 252.922 135.166 253.436 134.527 253.862L136.746 257.19C138.004 256.352 138.953 255.234 139.534 253.853L135.848 252.301ZM134.55 253.847C133.991 254.209 133.37 254.395 132.635 254.395V258.395C134.111 258.395 135.492 258.002 136.723 257.205L134.55 253.847ZM132.635 254.395C131.899 254.395 131.232 254.208 130.597 253.819L128.511 257.233C129.771 258.003 131.159 258.395 132.635 258.395V254.395ZM130.707 253.892C130.114 253.474 129.697 252.953 129.422 252.301L125.736 253.853C126.304 255.202 127.202 256.314 128.4 257.16L130.707 253.892ZM129.433 252.327L111.184 207.218L107.476 208.718L125.725 253.827L129.433 252.327ZM107.33 207.968V252.84H111.33V207.968H107.33ZM107.33 252.84C107.33 253.281 107.195 253.594 106.863 253.902L109.585 256.834C110.727 255.773 111.33 254.4 111.33 252.84H107.33ZM106.81 253.954C106.514 254.25 106.186 254.395 105.696 254.395V258.395C107.207 258.395 108.564 257.856 109.638 256.782L106.81 253.954ZM184.998 255.368L186.412 253.954L184.998 255.368ZM184.998 201.964L186.412 203.378L186.438 203.352L186.463 203.325L184.998 201.964ZM217.783 203.386L218.724 201.621L217.783 203.386ZM224.577 209.864L222.802 210.787L224.577 209.864ZM224.577 226.928L222.802 226.005V226.005L224.577 226.928ZM217.783 233.406L218.724 235.171L217.783 233.406ZM191.16 235.934V233.934H189.16V235.934H191.16ZM190.054 255.368L188.693 253.902L188.666 253.928L188.639 253.954L190.054 255.368ZM216.124 226.059L214.763 224.593L214.754 224.602L214.745 224.61L216.124 226.059ZM216.124 210.733L214.745 212.182L214.754 212.19L214.763 212.199L216.124 210.733ZM191.16 207.652V205.652H189.16V207.652H191.16ZM191.16 229.14H189.16V231.14H191.16V229.14ZM187.526 254.395C187.036 254.395 186.708 254.25 186.412 253.954L183.583 256.782C184.657 257.856 186.014 258.395 187.526 258.395V254.395ZM186.412 253.954C186.116 253.658 185.971 253.33 185.971 252.84H181.971C181.971 254.351 182.51 255.709 183.583 256.782L186.412 253.954ZM185.971 252.84V204.492H181.971V252.84H185.971ZM185.971 204.492C185.971 204.002 186.116 203.674 186.412 203.378L183.583 200.55C182.51 201.623 181.971 202.981 181.971 204.492H185.971ZM186.463 203.325C186.772 202.993 187.085 202.858 187.526 202.858V198.858C185.965 198.858 184.593 199.461 183.532 200.603L186.463 203.325ZM187.526 202.858H205.538V198.858H187.526V202.858ZM205.538 202.858C210.336 202.858 214.063 203.669 216.841 205.151L218.724 201.621C215.182 199.732 210.746 198.858 205.538 198.858V202.858ZM216.841 205.151C219.72 206.686 221.655 208.58 222.802 210.787L226.351 208.941C224.76 205.881 222.165 203.457 218.724 201.621L216.841 205.151ZM222.802 210.787C224.019 213.127 224.631 215.653 224.631 218.396H228.631C228.631 215.03 227.873 211.868 226.351 208.941L222.802 210.787ZM224.631 218.396C224.631 221.139 224.019 223.665 222.802 226.005L226.351 227.851C227.873 224.924 228.631 221.762 228.631 218.396H224.631ZM222.802 226.005C221.655 228.212 219.72 230.106 216.841 231.641L218.724 235.171C222.165 233.335 224.76 230.911 226.351 227.851L222.802 226.005ZM216.841 231.641C214.063 233.123 210.336 233.934 205.538 233.934V237.934C210.746 237.934 215.182 237.06 218.724 235.171L216.841 231.641ZM205.538 233.934H191.16V237.934H205.538V233.934ZM189.16 235.934V252.84H193.16V235.934H189.16ZM189.16 252.84C189.16 253.281 189.025 253.594 188.693 253.902L191.415 256.834C192.557 255.773 193.16 254.4 193.16 252.84H189.16ZM188.639 253.954C188.344 254.25 188.016 254.395 187.526 254.395V258.395C189.037 258.395 190.394 257.856 191.468 256.782L188.639 253.954ZM204.827 231.14C210.339 231.14 214.768 230.109 217.502 227.508L214.745 224.61C213.16 226.117 210.059 227.14 204.827 227.14V231.14ZM217.485 227.525C220.11 225.087 221.442 221.999 221.442 218.396H217.442C217.442 220.902 216.562 222.923 214.763 224.593L217.485 227.525ZM221.442 218.396C221.442 214.793 220.11 211.705 217.485 209.267L214.763 212.199C216.562 213.869 217.442 215.89 217.442 218.396H221.442ZM217.502 209.284C214.768 206.683 210.339 205.652 204.827 205.652V209.652C210.059 209.652 213.16 210.675 214.745 212.182L217.502 209.284ZM204.827 205.652H191.16V209.652H204.827V205.652ZM189.16 207.652V229.14H193.16V207.652H189.16ZM191.16 231.14H204.827V227.14H191.16V231.14ZM266.595 255.368L265.181 256.782L266.595 255.368ZM265.568 242.096H267.568V240.096H265.568V242.096ZM238.234 240.832L236.82 242.246L236.841 242.268L236.863 242.288L238.234 240.832ZM237.839 234.038L239.4 235.287L239.407 235.279L239.413 235.271L237.839 234.038ZM262.645 202.359L264.219 203.592L264.241 203.564L264.262 203.535L262.645 202.359ZM264.304 201.016L265.142 202.832L265.17 202.819L265.198 202.805L264.304 201.016ZM271.493 201.806L270.036 203.177L270.057 203.199L270.079 203.22L271.493 201.806ZM272.757 235.697H270.757V237.697H272.757V235.697ZM281.052 236.645L282.466 235.231V235.231L281.052 236.645ZM281.052 241.227L282.403 242.701L282.435 242.672L282.466 242.641L281.052 241.227ZM272.757 242.096V240.096H270.757V242.096H272.757ZM271.651 255.368L270.29 253.902L270.263 253.928L270.237 253.954L271.651 255.368ZM244.554 235.697L242.973 234.471L240.472 237.697H244.554V235.697ZM265.568 235.697V237.697H267.568V235.697H265.568ZM265.568 208.6H267.568V202.757L263.987 207.374L265.568 208.6ZM269.123 254.395C268.633 254.395 268.305 254.25 268.009 253.954L265.181 256.782C266.254 257.856 267.611 258.395 269.123 258.395V254.395ZM268.009 253.954C267.713 253.658 267.568 253.33 267.568 252.84H263.568C263.568 254.351 264.107 255.709 265.181 256.782L268.009 253.954ZM267.568 252.84V242.096H263.568V252.84H267.568ZM265.568 240.096H241.473V244.096H265.568V240.096ZM241.473 240.096C240.702 240.096 240.117 239.858 239.604 239.376L236.863 242.288C238.141 243.491 239.715 244.096 241.473 244.096V240.096ZM239.648 239.418C239.127 238.897 238.891 238.326 238.891 237.593H234.891C234.891 239.388 235.55 240.977 236.82 242.246L239.648 239.418ZM238.891 237.593V236.882H234.891V237.593H238.891ZM238.891 236.882C238.891 236.185 239.079 235.689 239.4 235.287L236.277 232.789C235.334 233.967 234.891 235.367 234.891 236.882H238.891ZM239.413 235.271L264.219 203.592L261.07 201.126L236.264 232.805L239.413 235.271ZM264.262 203.535C264.472 203.247 264.75 203.013 265.142 202.832L263.466 199.2C262.488 199.651 261.66 200.312 261.027 201.183L264.262 203.535ZM265.198 202.805C265.67 202.569 266.129 202.463 266.595 202.463V198.463C265.481 198.463 264.412 198.726 263.409 199.227L265.198 202.805ZM266.595 202.463H268.175V198.463H266.595V202.463ZM268.175 202.463C269.062 202.463 269.617 202.731 270.036 203.177L272.949 200.435C271.684 199.091 270.026 198.463 268.175 198.463V202.463ZM270.079 203.22C270.505 203.647 270.757 204.198 270.757 205.045H274.757C274.757 203.259 274.166 201.651 272.907 200.392L270.079 203.22ZM270.757 205.045V235.697H274.757V205.045H270.757ZM272.757 237.697H278.761V233.697H272.757V237.697ZM278.761 237.697C279.127 237.697 279.381 237.803 279.638 238.059L282.466 235.231C281.458 234.223 280.185 233.697 278.761 233.697V237.697ZM279.638 238.059C279.894 238.315 280 238.57 280 238.936H284C284 237.511 283.474 236.239 282.466 235.231L279.638 238.059ZM280 238.936C280 239.302 279.894 239.557 279.638 239.813L282.466 242.641C283.474 241.633 284 240.361 284 238.936H280ZM279.7 239.753C279.455 239.978 279.18 240.096 278.761 240.096V244.096C280.132 244.096 281.385 243.635 282.403 242.701L279.7 239.753ZM278.761 240.096H272.757V244.096H278.761V240.096ZM270.757 242.096V252.84H274.757V242.096H270.757ZM270.757 252.84C270.757 253.281 270.622 253.594 270.29 253.902L273.012 256.834C274.154 255.773 274.757 254.4 274.757 252.84H270.757ZM270.237 253.954C269.941 254.25 269.613 254.395 269.123 254.395V258.395C270.634 258.395 271.991 257.856 273.065 256.782L270.237 253.954ZM244.554 237.697H265.568V233.697H244.554V237.697ZM267.568 235.697V208.6H263.568V235.697H267.568ZM263.987 207.374L242.973 234.471L246.134 236.923L267.148 209.826L263.987 207.374Z" fill="white"/>
<ellipse opacity="0.05" cx="38.5" cy="26.5" rx="223.5" ry="214.5" fill="url(#paint2_linear_8_330)"/>
<ellipse opacity="0.05" cx="38.5" cy="26.5" rx="140.5" ry="134.5" fill="url(#paint3_linear_8_330)"/>
<g filter="url(#filter2_d_8_330)">
<path d="M325 141H245C232.85 141 223 131.15 223 119V39L325 141Z" fill="url(#paint4_linear_8_330)"/>
</g>
<path opacity="0.1" fill-rule="evenodd" clip-rule="evenodd" d="M111 176.549V287.451C111 299.904 121.096 310 133.549 310H244.451C256.904 310 267 299.904 267 287.451V176.549C267 164.096 256.904 154 244.451 154H133.549C121.096 154 111 164.096 111 176.549ZM125.182 176.549C125.182 171.928 128.928 168.182 133.549 168.182H146.455V189.455H125.182V176.549ZM125.182 203.636H146.455V224.909H125.182V203.636ZM252.818 189.455V176.549C252.818 171.928 249.072 168.182 244.451 168.182H231.545V189.455H252.818ZM231.545 203.636H252.818V224.909H231.545V203.636ZM217.364 168.182H160.636V224.909H217.364V168.182ZM252.818 239.091V260.364H231.545V239.091H252.818ZM252.818 274.545H231.545V295.818H244.451C249.072 295.818 252.818 292.072 252.818 287.451V274.545ZM217.364 239.091V295.818H160.636V239.091H217.364ZM125.182 274.545V287.451C125.182 292.072 128.928 295.818 133.549 295.818H146.455V274.545H125.182ZM146.455 260.364H125.182V239.091H146.455V260.364Z" fill="white"/>
</g>
</g>
<defs>
<filter id="filter0_d_8_330" x="0" y="0" width="378" height="414" filterUnits="userSpaceOnUse" color-interpolation-filters="sRGB">
<feFlood flood-opacity="0" result="BackgroundImageFix"/>
<feColorMatrix in="SourceAlpha" type="matrix" values="0 0 0 0 0 0 0 0 0 0 0 0 0 0 0 0 0 0 127 0" result="hardAlpha"/>
<feOffset dy="14"/>
<feGaussianBlur stdDeviation="26.5"/>
<feColorMatrix type="matrix" values="0 0 0 0 0 0 0 0 0 0 0 0 0 0 0 0 0 0 0.24 0"/>
<feBlend mode="normal" in2="BackgroundImageFix" result="effect1_dropShadow_8_330"/>
<feBlend mode="normal" in="SourceGraphic" in2="effect1_dropShadow_8_330" result="shape"/>
</filter>
<filter id="filter1_f_8_330" x="62" y="149" width="256" height="162" filterUnits="userSpaceOnUse" color-interpolation-filters="sRGB">
<feFlood flood-opacity="0" result="BackgroundImageFix"/>
<feBlend mode="normal" in="SourceGraphic" in2="BackgroundImageFix" result="shape"/>
<feGaussianBlur stdDeviation="19.5" result="effect1_foregroundBlur_8_330"/>
</filter>
<filter id="filter2_d_8_330" x="200" y="15" width="152" height="152" filterUnits="userSpaceOnUse" color-interpolation-filters="sRGB">
<feFlood flood-opacity="0" result="BackgroundImageFix"/>
<feColorMatrix in="SourceAlpha" type="matrix" values="0 0 0 0 0 0 0 0 0 0 0 0 0 0 0 0 0 0 127 0" result="hardAlpha"/>
<feOffset dx="2" dy="1"/>
<feGaussianBlur stdDeviation="12.5"/>
<feColorMatrix type="matrix" values="0 0 0 0 0 0 0 0 0 0 0 0 0 0 0 0 0 0 0.33 0"/>
<feBlend mode="normal" in2="BackgroundImageFix" result="effect1_dropShadow_8_330"/>
<feBlend mode="normal" in="SourceGraphic" in2="effect1_dropShadow_8_330" result="shape"/>
</filter>
<linearGradient id="paint0_linear_8_330" x1="189" y1="39" x2="189" y2="347" gradientUnits="userSpaceOnUse">
<stop stop-color="#FF7979"/>
<stop offset="1" stop-color="#E85555"/>
</linearGradient>
<linearGradient id="paint1_linear_8_330" x1="189" y1="39" x2="189" y2="347" gradientUnits="userSpaceOnUse">
<stop stop-color="#CB74F4"/>
<stop offset="0.942892" stop-color="#A849F3"/>
</linearGradient>
<linearGradient id="paint2_linear_8_330" x1="54.7277" y1="33.8711" x2="122.507" y2="213.758" gradientUnits="userSpaceOnUse">
<stop stop-color="white" stop-opacity="0"/>
<stop offset="1" stop-color="white"/>
</linearGradient>
<linearGradient id="paint3_linear_8_330" x1="48.7013" y1="31.122" x2="91.1204" y2="143.989" gradientUnits="userSpaceOnUse">
<stop stop-color="white" stop-opacity="0"/>
<stop offset="1" stop-color="white"/>
</linearGradient>
<linearGradient id="paint4_linear_8_330" x1="274" y1="39" x2="274" y2="141" gradientUnits="userSpaceOnUse">
<stop stop-color="#B051E0"/>
<stop offset="1" stop-color="#952BCB"/>
</linearGradient>
</defs>
</svg>
