<svg width="272" height="308" viewBox="0 0 272 308" fill="none" xmlns="http://www.w3.org/2000/svg">
<mask id="mask0_0_48" style="mask-type:alpha" maskUnits="userSpaceOnUse" x="0" y="0" width="272" height="308">
<path d="M250 308H22C9.84974 308 0 298.15 0 286V22C0 9.84974 9.84974 0 22 0H170L272 102V286C272 298.15 262.15 308 250 308Z" fill="url(#paint0_linear_0_48)"/>
</mask>
<g mask="url(#mask0_0_48)">
<path d="M250 308H22C9.84974 308 0 298.15 0 286V22C0 9.84974 9.84974 0 22 0H170L272 102V286C272 298.15 262.15 308 250 308Z" fill="url(#paint1_linear_0_48)"/>
<g opacity="0.51" filter="url(#filter0_f_0_48)">
<rect x="48" y="149" width="178" height="84" fill="#E33CC8" style="mix-blend-mode:darken"/>
</g>
<path d="M62.218 217.395C61.2173 217.395 60.3747 217.053 59.69 216.368C59.0053 215.683 58.663 214.841 58.663 213.84V165.492C58.663 164.491 59.0053 163.649 59.69 162.964C60.3747 162.227 61.2173 161.858 62.218 161.858H80.23C85.2333 161.858 89.315 162.701 92.475 164.386C95.635 166.071 97.8997 168.231 99.269 170.864C100.638 173.497 101.323 176.341 101.323 179.396C101.323 182.451 100.638 185.295 99.269 187.928C97.8997 190.561 95.635 192.721 92.475 194.406C89.315 196.091 85.2333 196.934 80.23 196.934H65.852V213.84C65.852 214.841 65.4833 215.683 64.746 216.368C64.0613 217.053 63.2187 217.395 62.218 217.395ZM79.519 190.14C84.891 190.14 88.6567 189.113 90.816 187.059C93.028 185.005 94.134 182.451 94.134 179.396C94.134 176.341 93.028 173.787 90.816 171.733C88.6567 169.679 84.891 168.652 79.519 168.652H65.852V190.14H79.519ZM120.826 217.395C119.825 217.395 118.983 217.053 118.298 216.368C117.613 215.683 117.271 214.841 117.271 213.84V166.677C117.271 165.255 117.771 164.044 118.772 163.043C119.773 161.99 120.984 161.463 122.406 161.463H123.433C125.118 161.463 126.567 162.253 127.778 163.833L158.193 207.757V165.097C158.193 164.096 158.535 163.254 159.22 162.569C159.905 161.832 160.747 161.463 161.748 161.463C162.749 161.463 163.591 161.832 164.276 162.569C165.013 163.254 165.382 164.096 165.382 165.097V212.26C165.382 213.682 164.855 214.893 163.802 215.894C162.801 216.895 161.59 217.395 160.168 217.395H159.22C158.377 217.395 157.587 217.211 156.85 216.842C156.113 216.421 155.507 215.894 155.033 215.262L124.46 171.101V213.84C124.46 214.841 124.091 215.683 123.354 216.368C122.669 217.053 121.827 217.395 120.826 217.395ZM210.628 217.79C205.203 217.79 200.384 216.605 196.171 214.235C191.958 211.812 188.692 208.468 186.375 204.202C184.058 199.883 182.899 194.985 182.899 189.508C182.899 183.925 184.11 178.975 186.533 174.656C188.956 170.337 192.247 166.993 196.408 164.623C200.621 162.253 205.282 161.068 210.391 161.068C214.499 161.068 218.08 161.568 221.135 162.569C224.242 163.57 227.218 164.965 230.062 166.756C230.483 166.967 230.852 167.335 231.168 167.862C231.484 168.389 231.642 168.968 231.642 169.6C231.642 170.495 231.326 171.259 230.694 171.891C230.115 172.523 229.325 172.839 228.324 172.839C227.745 172.839 227.192 172.707 226.665 172.444C224.19 170.969 221.714 169.863 219.239 169.126C216.764 168.389 214.078 168.02 211.181 168.02C207.178 168.02 203.571 168.863 200.358 170.548C197.145 172.233 194.617 174.709 192.774 177.974C190.983 181.187 190.088 185.031 190.088 189.508C190.088 193.616 190.931 197.303 192.616 200.568C194.354 203.781 196.829 206.335 200.042 208.231C203.307 210.074 207.152 210.996 211.576 210.996C216.527 210.996 221.135 209.837 225.401 207.52V193.221H212.366C211.471 193.221 210.707 192.905 210.075 192.273C209.443 191.641 209.127 190.877 209.127 189.982C209.127 189.087 209.443 188.323 210.075 187.691C210.707 187.059 211.471 186.743 212.366 186.743H227.929C228.982 186.743 229.878 187.112 230.615 187.849C231.352 188.586 231.721 189.482 231.721 190.535V208.468C231.721 209.574 231.431 210.575 230.852 211.47C230.325 212.313 229.614 212.945 228.719 213.366C222.82 216.315 216.79 217.79 210.628 217.79Z" fill="white"/>
<path d="M59.69 216.368L61.1042 214.954L61.1042 214.954L59.69 216.368ZM59.69 162.964L61.1042 164.378L61.1304 164.352L61.1556 164.325L59.69 162.964ZM92.475 164.386L93.4162 162.621L92.475 164.386ZM99.269 170.864L97.4946 171.787L97.4946 171.787L99.269 170.864ZM99.269 187.928L97.4946 187.005L97.4946 187.005L99.269 187.928ZM92.475 194.406L93.4162 196.171L92.475 194.406ZM65.852 196.934V194.934H63.852V196.934H65.852ZM64.746 216.368L63.3851 214.902L63.358 214.928L63.3318 214.954L64.746 216.368ZM90.816 187.059L89.4551 185.593L89.4463 185.602L89.4376 185.61L90.816 187.059ZM90.816 171.733L89.4376 173.182L89.4463 173.19L89.4551 173.199L90.816 171.733ZM65.852 168.652V166.652H63.852V168.652H65.852ZM65.852 190.14H63.852V192.14H65.852V190.14ZM62.218 215.395C61.7279 215.395 61.4 215.25 61.1042 214.954L58.2758 217.782C59.3493 218.856 60.7067 219.395 62.218 219.395V215.395ZM61.1042 214.954C60.8084 214.658 60.663 214.33 60.663 213.84H56.663C56.663 215.351 57.2022 216.709 58.2758 217.782L61.1042 214.954ZM60.663 213.84V165.492H56.663V213.84H60.663ZM60.663 165.492C60.663 165.002 60.8084 164.674 61.1042 164.378L58.2758 161.55C57.2023 162.623 56.663 163.981 56.663 165.492H60.663ZM61.1556 164.325C61.4642 163.993 61.777 163.858 62.218 163.858V159.858C60.6577 159.858 59.2851 160.461 58.2244 161.603L61.1556 164.325ZM62.218 163.858H80.23V159.858H62.218V163.858ZM80.23 163.858C85.0282 163.858 88.7555 164.669 91.5338 166.151L93.4162 162.621C89.8745 160.732 85.4385 159.858 80.23 159.858V163.858ZM91.5338 166.151C94.4123 167.686 96.3472 169.58 97.4946 171.787L101.043 169.941C99.4521 166.881 96.8578 164.457 93.4162 162.621L91.5338 166.151ZM97.4946 171.787C98.7113 174.127 99.323 176.653 99.323 179.396H103.323C103.323 176.03 102.565 172.868 101.043 169.941L97.4946 171.787ZM99.323 179.396C99.323 182.139 98.7113 184.665 97.4946 187.005L101.043 188.851C102.565 185.924 103.323 182.762 103.323 179.396H99.323ZM97.4946 187.005C96.3472 189.212 94.4123 191.106 91.5338 192.641L93.4162 196.171C96.8578 194.335 99.4521 191.911 101.043 188.851L97.4946 187.005ZM91.5338 192.641C88.7555 194.123 85.0282 194.934 80.23 194.934V198.934C85.4385 198.934 89.8745 198.06 93.4162 196.171L91.5338 192.641ZM80.23 194.934H65.852V198.934H80.23V194.934ZM63.852 196.934V213.84H67.852V196.934H63.852ZM63.852 213.84C63.852 214.281 63.7175 214.594 63.3851 214.902L66.1069 217.834C67.2492 216.773 67.852 215.4 67.852 213.84H63.852ZM63.3318 214.954C63.036 215.25 62.7081 215.395 62.218 215.395V219.395C63.7293 219.395 65.0867 218.856 66.1602 217.782L63.3318 214.954ZM79.519 192.14C85.031 192.14 89.4605 191.109 92.1944 188.508L89.4376 185.61C87.8529 187.117 84.751 188.14 79.519 188.14V192.14ZM92.1769 188.525C94.8019 186.087 96.134 182.999 96.134 179.396H92.134C92.134 181.902 91.2541 183.923 89.4551 185.593L92.1769 188.525ZM96.134 179.396C96.134 175.793 94.8019 172.705 92.1769 170.267L89.4551 173.199C91.2541 174.869 92.134 176.89 92.134 179.396H96.134ZM92.1944 170.284C89.4605 167.683 85.031 166.652 79.519 166.652V170.652C84.751 170.652 87.8529 171.675 89.4376 173.182L92.1944 170.284ZM79.519 166.652H65.852V170.652H79.519V166.652ZM63.852 168.652V190.14H67.852V168.652H63.852ZM65.852 192.14H79.519V188.14H65.852V192.14ZM118.298 216.368L119.712 214.954L119.712 214.954L118.298 216.368ZM118.772 163.043L120.186 164.457L120.204 164.439L120.222 164.42L118.772 163.043ZM127.778 163.833L129.422 162.694L129.395 162.655L129.365 162.616L127.778 163.833ZM158.193 207.757L156.549 208.896L160.193 214.158V207.757H158.193ZM159.22 162.569L160.634 163.983L160.661 163.957L160.686 163.93L159.22 162.569ZM164.276 162.569L162.811 163.93L162.861 163.984L162.915 164.035L164.276 162.569ZM163.802 215.894L162.425 214.444L162.406 214.462L162.388 214.48L163.802 215.894ZM156.85 216.842L155.858 218.578L155.906 218.606L155.956 218.631L156.85 216.842ZM155.033 215.262L153.389 216.4L153.41 216.432L153.433 216.462L155.033 215.262ZM124.46 171.101L126.105 169.963L122.46 164.698V171.101H124.46ZM123.354 216.368L121.993 214.902L121.966 214.928L121.94 214.954L123.354 216.368ZM120.826 215.395C120.336 215.395 120.008 215.25 119.712 214.954L116.884 217.782C117.957 218.856 119.315 219.395 120.826 219.395V215.395ZM119.712 214.954C119.417 214.658 119.271 214.33 119.271 213.84H115.271C115.271 215.351 115.81 216.709 116.884 217.782L119.712 214.954ZM119.271 213.84V166.677H115.271V213.84H119.271ZM119.271 166.677C119.271 165.783 119.563 165.081 120.186 164.457L117.358 161.629C115.98 163.007 115.271 164.727 115.271 166.677H119.271ZM120.222 164.42C120.854 163.755 121.546 163.463 122.406 163.463V159.463C120.423 159.463 118.691 160.224 117.322 161.665L120.222 164.42ZM122.406 163.463H123.433V159.463H122.406V163.463ZM123.433 163.463C124.38 163.463 125.281 163.863 126.191 165.05L129.365 162.616C127.853 160.643 125.857 159.463 123.433 159.463V163.463ZM126.134 164.972L156.549 208.896L159.837 206.618L129.422 162.694L126.134 164.972ZM160.193 207.757V165.097H156.193V207.757H160.193ZM160.193 165.097C160.193 164.607 160.339 164.279 160.634 163.983L157.806 161.155C156.732 162.228 156.193 163.586 156.193 165.097H160.193ZM160.686 163.93C160.994 163.598 161.307 163.463 161.748 163.463V159.463C160.188 159.463 158.815 160.066 157.755 161.208L160.686 163.93ZM161.748 163.463C162.189 163.463 162.502 163.598 162.811 163.93L165.742 161.208C164.681 160.066 163.308 159.463 161.748 159.463V163.463ZM162.915 164.035C163.248 164.343 163.382 164.656 163.382 165.097H167.382C167.382 163.537 166.779 162.164 165.637 161.103L162.915 164.035ZM163.382 165.097V212.26H167.382V165.097H163.382ZM163.382 212.26C163.382 213.12 163.09 213.812 162.425 214.444L165.18 217.344C166.621 215.975 167.382 214.244 167.382 212.26H163.382ZM162.388 214.48C161.764 215.103 161.063 215.395 160.168 215.395V219.395C162.118 219.395 163.839 218.686 165.216 217.308L162.388 214.48ZM160.168 215.395H159.22V219.395H160.168V215.395ZM159.22 215.395C158.681 215.395 158.198 215.28 157.745 215.053L155.956 218.631C156.977 219.142 158.074 219.395 159.22 219.395V215.395ZM157.842 215.106C157.324 214.809 156.931 214.46 156.633 214.062L153.433 216.462C154.083 217.328 154.901 218.032 155.858 218.578L157.842 215.106ZM156.678 214.124L126.105 169.963L122.816 172.239L153.389 216.4L156.678 214.124ZM122.46 171.101V213.84H126.46V171.101H122.46ZM122.46 213.84C122.46 214.281 122.326 214.594 121.993 214.902L124.715 217.834C125.857 216.773 126.46 215.4 126.46 213.84H122.46ZM121.94 214.954C121.644 215.25 121.316 215.395 120.826 215.395V219.395C122.337 219.395 123.695 218.856 124.768 217.782L121.94 214.954ZM196.171 214.235L195.174 215.969L195.182 215.974L195.191 215.978L196.171 214.235ZM186.375 204.202L184.613 205.148L184.618 205.157L186.375 204.202ZM186.533 174.656L188.277 175.635L188.277 175.635L186.533 174.656ZM196.408 164.623L195.428 162.88L195.418 162.885L196.408 164.623ZM221.135 162.569L220.513 164.47L220.522 164.473L221.135 162.569ZM230.062 166.756L228.997 168.448L229.08 168.501L229.168 168.545L230.062 166.756ZM231.168 167.862L229.453 168.891L229.453 168.891L231.168 167.862ZM230.694 171.891L229.28 170.477L229.249 170.508L229.22 170.54L230.694 171.891ZM226.665 172.444L225.642 174.162L225.705 174.2L225.771 174.233L226.665 172.444ZM219.239 169.126L219.81 167.209L219.81 167.209L219.239 169.126ZM200.358 170.548L201.287 172.319L201.287 172.319L200.358 170.548ZM192.774 177.974L191.032 176.991L191.027 177L192.774 177.974ZM192.616 200.568L190.839 201.485L190.848 201.503L190.857 201.52L192.616 200.568ZM200.042 208.231L199.026 209.953L199.042 209.963L199.059 209.973L200.042 208.231ZM225.401 207.52L226.356 209.277L227.401 208.71V207.52H225.401ZM225.401 193.221H227.401V191.221H225.401V193.221ZM210.075 192.273L208.661 193.687L210.075 192.273ZM210.075 187.691L208.661 186.277L210.075 187.691ZM230.852 211.47L229.173 210.383L229.164 210.397L229.156 210.41L230.852 211.47ZM228.719 213.366L227.868 211.556L227.846 211.566L227.825 211.577L228.719 213.366ZM210.628 215.79C205.504 215.79 201.03 214.674 197.152 212.492L195.191 215.978C199.738 218.536 204.903 219.79 210.628 219.79V215.79ZM197.168 212.501C193.275 210.263 190.273 207.188 188.133 203.247L184.618 205.157C187.112 209.748 190.641 213.362 195.174 215.969L197.168 212.501ZM188.137 203.256C185.994 199.261 184.899 194.695 184.899 189.508H180.899C180.899 195.276 182.122 200.505 184.613 205.148L188.137 203.256ZM184.899 189.508C184.899 184.224 186.043 179.618 188.277 175.635L184.789 173.677C182.178 178.332 180.899 183.627 180.899 189.508H184.899ZM188.277 175.635C190.529 171.621 193.564 168.545 197.398 166.361L195.418 162.885C190.931 165.441 187.383 169.053 184.789 173.677L188.277 175.635ZM197.389 166.366C201.285 164.174 205.606 163.068 210.391 163.068V159.068C204.959 159.068 199.957 160.332 195.428 162.88L197.389 166.366ZM210.391 163.068C214.343 163.068 217.706 163.55 220.513 164.47L221.758 160.668C218.455 159.587 214.655 159.068 210.391 159.068V163.068ZM220.522 164.473C223.466 165.421 226.29 166.744 228.997 168.448L231.128 165.064C228.147 163.186 225.019 161.719 221.748 160.665L220.522 164.473ZM229.168 168.545C229.168 168.545 229.174 168.548 229.186 168.556C229.197 168.565 229.216 168.58 229.24 168.605C229.291 168.655 229.365 168.744 229.453 168.891L232.883 166.833C232.43 166.078 231.807 165.392 230.957 164.967L229.168 168.545ZM229.453 168.891C229.577 169.098 229.642 169.319 229.642 169.6H233.642C233.642 168.617 233.391 167.68 232.883 166.833L229.453 168.891ZM229.642 169.6C229.642 169.966 229.536 170.221 229.28 170.477L232.108 173.305C233.116 172.297 233.642 171.025 233.642 169.6H229.642ZM229.22 170.54C229.084 170.688 228.867 170.839 228.324 170.839V174.839C229.783 174.839 231.146 174.358 232.168 173.242L229.22 170.54ZM228.324 170.839C228.061 170.839 227.813 170.782 227.56 170.655L225.771 174.233C226.57 174.633 227.429 174.839 228.324 174.839V170.839ZM227.689 170.726C225.087 169.176 222.461 167.999 219.81 167.209L218.668 171.043C220.968 171.728 223.292 172.763 225.642 174.162L227.689 170.726ZM219.81 167.209C217.129 166.41 214.248 166.02 211.181 166.02V170.02C213.908 170.02 216.399 170.367 218.668 171.043L219.81 167.209ZM211.181 166.02C206.889 166.02 202.957 166.926 199.429 168.777L201.287 172.319C204.185 170.799 207.468 170.02 211.181 170.02V166.02ZM199.429 168.777C195.863 170.647 193.058 173.402 191.032 176.991L194.516 178.957C196.176 176.015 198.428 173.819 201.287 172.319L199.429 168.777ZM191.027 177C189.038 180.569 188.088 184.764 188.088 189.508H192.088C192.088 185.299 192.929 181.804 194.521 178.948L191.027 177ZM188.088 189.508C188.088 193.897 188.991 197.904 190.839 201.485L194.393 199.651C192.871 196.701 192.088 193.335 192.088 189.508H188.088ZM190.857 201.52C192.772 205.059 195.507 207.877 199.026 209.953L201.059 206.509C198.152 204.793 195.936 202.502 194.375 199.616L190.857 201.52ZM199.059 209.973C202.674 212.014 206.87 212.996 211.576 212.996V208.996C207.434 208.996 203.941 208.135 201.025 206.489L199.059 209.973ZM211.576 212.996C216.853 212.996 221.791 211.757 226.356 209.277L224.446 205.763C220.479 207.917 216.2 208.996 211.576 208.996V212.996ZM227.401 207.52V193.221H223.401V207.52H227.401ZM225.401 191.221H212.366V195.221H225.401V191.221ZM212.366 191.221C212 191.221 211.746 191.115 211.489 190.859L208.661 193.687C209.669 194.695 210.941 195.221 212.366 195.221V191.221ZM211.489 190.859C211.233 190.603 211.127 190.348 211.127 189.982H207.127C207.127 191.407 207.653 192.679 208.661 193.687L211.489 190.859ZM211.127 189.982C211.127 189.616 211.233 189.361 211.489 189.105L208.661 186.277C207.653 187.285 207.127 188.557 207.127 189.982H211.127ZM211.489 189.105C211.746 188.849 212 188.743 212.366 188.743V184.743C210.941 184.743 209.669 185.269 208.661 186.277L211.489 189.105ZM212.366 188.743H227.929V184.743H212.366V188.743ZM227.929 188.743C228.458 188.743 228.843 188.905 229.201 189.263L232.029 186.435C230.913 185.318 229.507 184.743 227.929 184.743V188.743ZM229.201 189.263C229.559 189.621 229.721 190.006 229.721 190.535H233.721C233.721 188.957 233.146 187.551 232.029 186.435L229.201 189.263ZM229.721 190.535V208.468H233.721V190.535H229.721ZM229.721 208.468C229.721 209.204 229.535 209.824 229.173 210.383L232.531 212.557C233.328 211.325 233.721 209.944 233.721 208.468H229.721ZM229.156 210.41C228.832 210.928 228.414 211.299 227.868 211.556L229.571 215.176C230.815 214.59 231.819 213.697 232.548 212.53L229.156 210.41ZM227.825 211.577C222.184 214.398 216.458 215.79 210.628 215.79V219.79C217.122 219.79 223.457 218.233 229.614 215.155L227.825 211.577Z" fill="white"/>
<g filter="url(#filter1_d_0_48)">
<path d="M272 102H192C179.85 102 170 92.1503 170 80V0L272 102Z" fill="url(#paint2_linear_0_48)"/>
</g>
</g>
<defs>
<filter id="filter0_f_0_48" x="9" y="110" width="256" height="162" filterUnits="userSpaceOnUse" color-interpolation-filters="sRGB">
<feFlood flood-opacity="0" result="BackgroundImageFix"/>
<feBlend mode="normal" in="SourceGraphic" in2="BackgroundImageFix" result="shape"/>
<feGaussianBlur stdDeviation="19.5" result="effect1_foregroundBlur_0_48"/>
</filter>
<filter id="filter1_d_0_48" x="147" y="-24" width="152" height="152" filterUnits="userSpaceOnUse" color-interpolation-filters="sRGB">
<feFlood flood-opacity="0" result="BackgroundImageFix"/>
<feColorMatrix in="SourceAlpha" type="matrix" values="0 0 0 0 0 0 0 0 0 0 0 0 0 0 0 0 0 0 127 0" result="hardAlpha"/>
<feOffset dx="2" dy="1"/>
<feGaussianBlur stdDeviation="12.5"/>
<feColorMatrix type="matrix" values="0 0 0 0 0 0 0 0 0 0 0 0 0 0 0 0 0 0 0.33 0"/>
<feBlend mode="normal" in2="BackgroundImageFix" result="effect1_dropShadow_0_48"/>
<feBlend mode="normal" in="SourceGraphic" in2="effect1_dropShadow_0_48" result="shape"/>
</filter>
<linearGradient id="paint0_linear_0_48" x1="136" y1="0" x2="136" y2="308" gradientUnits="userSpaceOnUse">
<stop stop-color="#FF7979"/>
<stop offset="1" stop-color="#E85555"/>
</linearGradient>
<linearGradient id="paint1_linear_0_48" x1="136" y1="0" x2="136" y2="308" gradientUnits="userSpaceOnUse">
<stop stop-color="#ED81FF"/>
<stop offset="1" stop-color="#DC5DD7"/>
</linearGradient>
<linearGradient id="paint2_linear_0_48" x1="192.5" y1="-32" x2="221" y2="102" gradientUnits="userSpaceOnUse">
<stop stop-color="#F171BE"/>
<stop offset="1" stop-color="#D823D1"/>
</linearGradient>
</defs>
</svg>
