<svg width="272" height="308" viewBox="0 0 272 308" fill="none" xmlns="http://www.w3.org/2000/svg">
<mask id="mask0_8_0" style="mask-type:alpha" maskUnits="userSpaceOnUse" x="0" y="0" width="272" height="308">
<path d="M250 308H22C9.84974 308 0 298.15 0 286V22C0 9.84974 9.84974 0 22 0H170L272 102V286C272 298.15 262.15 308 250 308Z" fill="url(#paint0_linear_8_0)"/>
</mask>
<g mask="url(#mask0_8_0)">
<path d="M250 308H22C9.84974 308 0 298.15 0 286V22C0 9.84974 9.84974 0 22 0H170L272 102V286C272 298.15 262.15 308 250 308Z" fill="url(#paint1_linear_8_0)"/>
<g filter="url(#filter0_f_8_0)">
<rect x="48" y="149" width="178" height="84" fill="#CC1583" fill-opacity="0.15" style="mix-blend-mode:darken"/>
</g>
<path d="M76.043 217.79C69.3543 217.79 63.087 216.526 57.241 213.998C56.609 213.735 56.0823 213.313 55.661 212.734C55.2397 212.102 55.029 211.444 55.029 210.759C55.029 209.864 55.3187 209.1 55.898 208.468C56.53 207.783 57.32 207.441 58.268 207.441C58.7947 207.441 59.295 207.546 59.769 207.757C64.6143 209.916 69.802 210.996 75.332 210.996C84.5487 210.996 89.157 207.968 89.157 201.911C89.157 200.331 88.5513 199.014 87.34 197.961C86.1813 196.908 84.733 196.091 82.995 195.512C81.257 194.88 78.7817 194.143 75.569 193.3C71.303 192.194 67.8533 191.141 65.22 190.14C62.5867 189.087 60.322 187.533 58.426 185.479C56.53 183.425 55.582 180.686 55.582 177.263C55.582 174.261 56.372 171.549 57.952 169.126C59.532 166.651 61.8493 164.702 64.904 163.28C68.0113 161.805 71.7243 161.068 76.043 161.068C81.8363 161.068 87.0767 161.937 91.764 163.675C93.2387 164.202 93.976 165.255 93.976 166.835C93.976 167.678 93.6863 168.441 93.107 169.126C92.5277 169.811 91.764 170.153 90.816 170.153C90.5 170.153 90.0787 170.048 89.552 169.837C85.444 168.415 81.2043 167.704 76.833 167.704C72.6723 167.704 69.2753 168.494 66.642 170.074C64.0613 171.654 62.771 173.866 62.771 176.71C62.771 178.606 63.3767 180.16 64.588 181.371C65.852 182.53 67.4057 183.451 69.249 184.136C71.145 184.768 73.6993 185.453 76.912 186.19C81.0727 187.191 84.417 188.191 86.945 189.192C89.5257 190.193 91.7113 191.746 93.502 193.853C95.3453 195.96 96.267 198.804 96.267 202.385C96.267 205.334 95.4243 207.994 93.739 210.364C92.0537 212.681 89.6837 214.498 86.629 215.815C83.5743 217.132 80.0457 217.79 76.043 217.79ZM131.292 217.395C129.132 217.395 127.5 216.184 126.394 213.761L106.881 166.44C106.723 166.019 106.644 165.571 106.644 165.097C106.644 163.991 106.96 163.122 107.592 162.49C108.224 161.805 109.093 161.463 110.199 161.463C110.936 161.463 111.594 161.7 112.174 162.174C112.806 162.595 113.28 163.175 113.596 163.912L132.161 210.206L150.726 163.912C151.042 163.175 151.489 162.595 152.069 162.174C152.701 161.7 153.385 161.463 154.123 161.463C155.229 161.463 156.098 161.805 156.73 162.49C157.362 163.122 157.678 163.991 157.678 165.097C157.678 165.571 157.599 166.019 157.441 166.44L137.928 213.761C136.822 216.184 135.189 217.395 133.03 217.395H131.292ZM196.201 217.79C190.777 217.79 185.958 216.605 181.744 214.235C177.531 211.812 174.266 208.468 171.948 204.202C169.631 199.883 168.472 194.985 168.472 189.508C168.472 183.925 169.684 178.975 172.106 174.656C174.529 170.337 177.821 166.993 181.981 164.623C186.195 162.253 190.856 161.068 195.964 161.068C200.072 161.068 203.654 161.568 206.708 162.569C209.816 163.57 212.791 164.965 215.635 166.756C216.057 166.967 216.425 167.335 216.741 167.862C217.057 168.389 217.215 168.968 217.215 169.6C217.215 170.495 216.899 171.259 216.267 171.891C215.688 172.523 214.898 172.839 213.897 172.839C213.318 172.839 212.765 172.707 212.238 172.444C209.763 170.969 207.288 169.863 204.812 169.126C202.337 168.389 199.651 168.02 196.754 168.02C192.752 168.02 189.144 168.863 185.931 170.548C182.719 172.233 180.191 174.709 178.347 177.974C176.557 181.187 175.661 185.031 175.661 189.508C175.661 193.616 176.504 197.303 178.189 200.568C179.927 203.781 182.403 206.335 185.615 208.231C188.881 210.074 192.725 210.996 197.149 210.996C202.1 210.996 206.708 209.837 210.974 207.52V193.221H197.939C197.044 193.221 196.28 192.905 195.648 192.273C195.016 191.641 194.7 190.877 194.7 189.982C194.7 189.087 195.016 188.323 195.648 187.691C196.28 187.059 197.044 186.743 197.939 186.743H213.502C214.556 186.743 215.451 187.112 216.188 187.849C216.926 188.586 217.294 189.482 217.294 190.535V208.468C217.294 209.574 217.005 210.575 216.425 211.47C215.899 212.313 215.188 212.945 214.292 213.366C208.394 216.315 202.363 217.79 196.201 217.79Z" fill="white"/>
<path d="M57.241 213.998L58.0348 212.162L58.0226 212.157L58.0102 212.152L57.241 213.998ZM55.661 212.734L53.9969 213.843L54.0195 213.877L54.0435 213.91L55.661 212.734ZM55.898 208.468L54.4284 207.111L54.4237 207.117L55.898 208.468ZM59.769 207.757L60.5831 205.93L60.5813 205.929L59.769 207.757ZM87.34 197.961L85.9947 199.441L86.011 199.456L86.0276 199.47L87.34 197.961ZM82.995 195.512L82.3115 197.392L82.3369 197.401L82.3625 197.409L82.995 195.512ZM75.569 193.3L76.0764 191.365L76.0709 191.364L75.569 193.3ZM65.22 190.14L64.4772 191.997L64.4933 192.003L64.5096 192.01L65.22 190.14ZM58.426 185.479L56.9564 186.836L58.426 185.479ZM57.952 169.126L59.6272 170.219L59.6326 170.21L59.6378 170.202L57.952 169.126ZM64.904 163.28L65.7481 165.093L65.7548 165.09L65.7615 165.087L64.904 163.28ZM91.764 163.675L91.0687 165.55L91.08 165.554L91.0913 165.558L91.764 163.675ZM93.107 169.126L94.6338 170.418L94.6338 170.418L93.107 169.126ZM89.552 169.837L90.2948 167.98L90.2509 167.962L90.2062 167.947L89.552 169.837ZM66.642 170.074L65.613 168.359L65.6053 168.364L65.5977 168.368L66.642 170.074ZM64.588 181.371L63.1738 182.785L63.2045 182.816L63.2366 182.845L64.588 181.371ZM69.249 184.136L68.5526 186.011L68.5844 186.023L68.6165 186.033L69.249 184.136ZM76.912 186.19L77.3797 184.245L77.3695 184.243L77.3594 184.241L76.912 186.19ZM86.945 189.192L86.2089 191.052L86.2219 191.057L86.945 189.192ZM93.502 193.853L91.9781 195.148L91.9874 195.159L91.9968 195.17L93.502 193.853ZM93.739 210.364L95.3565 211.54L95.3627 211.532L95.3689 211.523L93.739 210.364ZM86.629 215.815L87.4207 217.652L86.629 215.815ZM76.043 215.79C69.6134 215.79 63.6177 214.577 58.0348 212.162L56.4472 215.834C62.5563 218.475 69.0952 219.79 76.043 219.79V215.79ZM58.0102 212.152C57.7331 212.036 57.4943 211.854 57.2785 211.558L54.0435 213.91C54.6703 214.772 55.4849 215.433 56.4718 215.844L58.0102 212.152ZM57.3251 211.625C57.0979 211.284 57.029 211.006 57.029 210.759H53.029C53.029 211.881 53.3814 212.92 53.9969 213.843L57.3251 211.625ZM57.029 210.759C57.029 210.34 57.1472 210.065 57.3723 209.819L54.4237 207.117C53.4901 208.135 53.029 209.388 53.029 210.759H57.029ZM57.3676 209.825C57.6136 209.558 57.8671 209.441 58.268 209.441V205.441C56.7729 205.441 55.4464 206.009 54.4284 207.111L57.3676 209.825ZM58.268 209.441C58.5193 209.441 58.7425 209.489 58.9567 209.585L60.5813 205.929C59.8475 205.603 59.0701 205.441 58.268 205.441V209.441ZM58.9549 209.584C64.0673 211.862 69.5337 212.996 75.332 212.996V208.996C70.0703 208.996 65.1613 207.97 60.5831 205.93L58.9549 209.584ZM75.332 212.996C80.0958 212.996 84.0162 212.225 86.7991 210.396C89.7285 208.471 91.157 205.534 91.157 201.911H87.157C87.157 204.344 86.2813 205.95 84.6024 207.053C82.777 208.253 79.7849 208.996 75.332 208.996V212.996ZM91.157 201.911C91.157 199.742 90.2925 197.878 88.6524 196.452L86.0276 199.47C86.8102 200.151 87.157 200.92 87.157 201.911H91.157ZM88.6853 196.481C87.2887 195.211 85.5851 194.267 83.6275 193.615L82.3625 197.409C83.8809 197.915 85.074 198.604 85.9947 199.441L88.6853 196.481ZM83.6785 193.632C81.8544 192.969 79.3098 192.214 76.0764 191.365L75.0616 195.235C78.2535 196.072 80.6596 196.791 82.3115 197.392L83.6785 193.632ZM76.0709 191.364C71.841 190.267 68.4687 189.235 65.9304 188.27L64.5096 192.01C67.2379 193.046 70.765 194.121 75.0671 195.236L76.0709 191.364ZM65.9628 188.283C63.6018 187.339 61.5866 185.954 59.8956 184.122L56.9564 186.836C59.0574 189.112 61.5716 190.835 64.4772 191.997L65.9628 188.283ZM59.8956 184.122C58.4134 182.517 57.582 180.302 57.582 177.263H53.582C53.582 181.07 54.6466 184.333 56.9564 186.836L59.8956 184.122ZM57.582 177.263C57.582 174.633 58.2675 172.303 59.6272 170.219L56.2768 168.033C54.4765 170.794 53.582 173.889 53.582 177.263H57.582ZM59.6378 170.202C60.9842 168.093 62.9863 166.379 65.7481 165.093L64.0599 161.467C60.7123 163.025 58.0798 165.209 56.2662 168.05L59.6378 170.202ZM65.7615 165.087C68.5414 163.768 71.9472 163.068 76.043 163.068V159.068C71.5014 159.068 67.4813 159.843 64.0465 161.473L65.7615 165.087ZM76.043 163.068C81.6361 163.068 86.6362 163.907 91.0687 165.55L92.4593 161.8C87.5171 159.967 82.0366 159.068 76.043 159.068V163.068ZM91.0913 165.558C91.5247 165.713 91.7014 165.888 91.7845 166.007C91.8687 166.127 91.976 166.36 91.976 166.835H95.976C95.976 165.73 95.7147 164.646 95.0615 163.713C94.4072 162.778 93.478 162.163 92.4367 161.792L91.0913 165.558ZM91.976 166.835C91.976 167.173 91.8753 167.485 91.5802 167.834L94.6338 170.418C95.4974 169.397 95.976 168.183 95.976 166.835H91.976ZM91.5802 167.834C91.405 168.041 91.214 168.153 90.816 168.153V172.153C92.314 172.153 93.6504 171.58 94.6338 170.418L91.5802 167.834ZM90.816 168.153C90.8696 168.153 90.8547 168.16 90.7481 168.134C90.6469 168.108 90.498 168.061 90.2948 167.98L88.8092 171.694C89.4146 171.936 90.1181 172.153 90.816 172.153V168.153ZM90.2062 167.947C85.8866 166.452 81.4258 165.704 76.833 165.704V169.704C80.9829 169.704 85.0014 170.378 88.8978 171.727L90.2062 167.947ZM76.833 165.704C72.4339 165.704 68.6487 166.538 65.613 168.359L67.671 171.789C69.902 170.45 72.9107 169.704 76.833 169.704V165.704ZM65.5977 168.368C62.4693 170.284 60.771 173.118 60.771 176.71H64.771C64.771 174.614 65.6534 173.024 67.6863 171.78L65.5977 168.368ZM60.771 176.71C60.771 179.074 61.5456 181.157 63.1738 182.785L66.0022 179.957C65.2077 179.162 64.771 178.138 64.771 176.71H60.771ZM63.2366 182.845C64.7169 184.202 66.5023 185.249 68.5526 186.011L69.9454 182.261C68.309 181.653 66.9871 180.857 65.9395 179.897L63.2366 182.845ZM68.6165 186.033C70.5996 186.694 73.2239 187.396 76.4646 188.139L77.3594 184.241C74.1748 183.51 71.6904 182.842 69.8815 182.239L68.6165 186.033ZM76.4443 188.135C80.5591 189.124 83.803 190.099 86.2089 191.052L87.6811 187.332C85.031 186.283 81.5863 185.257 77.3797 184.245L76.4443 188.135ZM86.2219 191.057C88.4928 191.937 90.4031 193.295 91.9781 195.148L95.0259 192.558C93.0195 190.197 90.5585 188.448 87.6681 187.327L86.2219 191.057ZM91.9968 195.17C93.4402 196.82 94.267 199.149 94.267 202.385H98.267C98.267 198.458 97.2505 195.1 95.0072 192.536L91.9968 195.17ZM94.267 202.385C94.267 204.925 93.5501 207.179 92.1091 209.205L95.3689 211.523C97.2986 208.809 98.267 205.743 98.267 202.385H94.267ZM92.1215 209.188C90.6792 211.171 88.6162 212.781 85.8373 213.978L87.4207 217.652C90.7511 216.216 93.4281 214.192 95.3565 211.54L92.1215 209.188ZM85.8373 213.978C83.0781 215.168 79.8276 215.79 76.043 215.79V219.79C80.2637 219.79 84.0706 219.096 87.4207 217.652L85.8373 213.978ZM126.394 213.761L124.545 214.523L124.559 214.558L124.574 214.592L126.394 213.761ZM106.881 166.44L105.008 167.142L105.019 167.173L105.032 167.202L106.881 166.44ZM107.592 162.49L109.006 163.904L109.034 163.876L109.061 163.847L107.592 162.49ZM112.174 162.174L110.907 163.722L110.983 163.784L111.064 163.838L112.174 162.174ZM113.596 163.912L115.452 163.168L115.443 163.146L115.434 163.124L113.596 163.912ZM132.161 210.206L130.304 210.95L132.161 215.579L134.017 210.95L132.161 210.206ZM150.726 163.912L148.887 163.124L148.878 163.146L148.869 163.168L150.726 163.912ZM152.069 162.174L153.245 163.791L153.257 163.783L153.269 163.774L152.069 162.174ZM156.73 162.49L155.26 163.847L155.287 163.876L155.316 163.904L156.73 162.49ZM157.441 166.44L159.29 167.202L159.302 167.173L159.313 167.142L157.441 166.44ZM137.928 213.761L139.747 214.592L139.763 214.558L139.777 214.523L137.928 213.761ZM131.292 215.395C130.613 215.395 130.089 215.214 129.639 214.88C129.166 214.529 128.668 213.927 128.213 212.93L124.574 214.592C125.226 216.018 126.097 217.233 127.256 218.093C128.439 218.971 129.811 219.395 131.292 219.395V215.395ZM128.243 212.999L108.73 165.678L105.032 167.202L124.545 214.523L128.243 212.999ZM108.753 165.738C108.684 165.553 108.644 165.344 108.644 165.097H104.644C104.644 165.798 104.761 166.485 105.008 167.142L108.753 165.738ZM108.644 165.097C108.644 164.388 108.834 164.076 109.006 163.904L106.178 161.076C105.086 162.168 104.644 163.594 104.644 165.097H108.644ZM109.061 163.847C109.244 163.649 109.537 163.463 110.199 163.463V159.463C108.648 159.463 107.203 159.962 106.122 161.133L109.061 163.847ZM110.199 163.463C110.467 163.463 110.679 163.535 110.907 163.722L113.44 160.626C112.51 159.865 111.405 159.463 110.199 159.463V163.463ZM111.064 163.838C111.355 164.032 111.585 164.298 111.757 164.7L115.434 163.124C114.974 162.051 114.257 161.159 113.283 160.51L111.064 163.838ZM111.739 164.656L130.304 210.95L134.017 209.462L115.452 163.168L111.739 164.656ZM134.017 210.95L152.582 164.656L148.869 163.168L130.304 209.462L134.017 210.95ZM152.564 164.7C152.756 164.253 152.991 163.976 153.245 163.791L150.892 160.557C149.988 161.214 149.328 162.096 148.887 163.124L152.564 164.7ZM153.269 163.774C153.581 163.54 153.85 163.463 154.123 163.463V159.463C152.921 159.463 151.821 159.86 150.869 160.574L153.269 163.774ZM154.123 163.463C154.784 163.463 155.077 163.649 155.26 163.847L158.199 161.133C157.118 159.962 155.673 159.463 154.123 159.463V163.463ZM155.316 163.904C155.488 164.076 155.678 164.388 155.678 165.097H159.678C159.678 163.594 159.236 162.168 158.144 161.076L155.316 163.904ZM155.678 165.097C155.678 165.344 155.637 165.553 155.568 165.738L159.313 167.142C159.56 166.485 159.678 165.798 159.678 165.097H155.678ZM155.592 165.678L136.079 212.999L139.777 214.523L159.29 167.202L155.592 165.678ZM136.108 212.93C135.654 213.927 135.156 214.529 134.682 214.88C134.233 215.214 133.709 215.395 133.03 215.395V219.395C134.51 219.395 135.882 218.971 137.065 218.093C138.224 217.233 139.096 216.018 139.747 214.592L136.108 212.93ZM133.03 215.395H131.292V219.395H133.03V215.395ZM181.744 214.235L180.747 215.969L180.756 215.974L180.764 215.978L181.744 214.235ZM171.948 204.202L170.186 205.148L170.191 205.157L171.948 204.202ZM172.106 174.656L173.851 175.635L172.106 174.656ZM181.981 164.623L181.001 162.88L180.991 162.885L181.981 164.623ZM206.708 162.569L206.086 164.47L206.095 164.473L206.708 162.569ZM215.635 166.756L214.57 168.448L214.653 168.501L214.741 168.545L215.635 166.756ZM216.741 167.862L215.026 168.891V168.891L216.741 167.862ZM216.267 171.891L214.853 170.477L214.822 170.508L214.793 170.54L216.267 171.891ZM212.238 172.444L211.215 174.162L211.278 174.2L211.344 174.233L212.238 172.444ZM204.812 169.126L205.383 167.209L204.812 169.126ZM185.931 170.548L186.86 172.319V172.319L185.931 170.548ZM178.347 177.974L176.606 176.991L176.6 177L178.347 177.974ZM178.189 200.568L176.412 201.485L176.421 201.503L176.43 201.52L178.189 200.568ZM185.615 208.231L184.599 209.953L184.615 209.963L184.632 209.973L185.615 208.231ZM210.974 207.52L211.929 209.277L212.974 208.71V207.52H210.974ZM210.974 193.221H212.974V191.221H210.974V193.221ZM195.648 192.273L194.234 193.687L195.648 192.273ZM195.648 187.691L194.234 186.277L195.648 187.691ZM216.425 211.47L214.746 210.383L214.738 210.397L214.729 210.41L216.425 211.47ZM214.292 213.366L213.441 211.556L213.419 211.566L213.398 211.577L214.292 213.366ZM196.201 215.79C191.077 215.79 186.604 214.674 182.725 212.492L180.764 215.978C185.312 218.536 190.476 219.79 196.201 219.79V215.79ZM182.741 212.501C178.848 210.263 175.846 207.188 173.706 203.247L170.191 205.157C172.685 209.748 176.214 213.362 180.747 215.969L182.741 212.501ZM173.711 203.256C171.567 199.261 170.472 194.695 170.472 189.508H166.472C166.472 195.276 167.695 200.505 170.186 205.148L173.711 203.256ZM170.472 189.508C170.472 184.224 171.616 179.618 173.851 175.635L170.362 173.677C167.751 178.332 166.472 183.627 166.472 189.508H170.472ZM173.851 175.635C176.102 171.621 179.138 168.545 182.971 166.361L180.991 162.885C176.504 165.441 172.956 169.053 170.362 173.677L173.851 175.635ZM182.962 166.366C186.859 164.174 191.179 163.068 195.964 163.068V159.068C190.532 159.068 185.531 160.332 181.001 162.88L182.962 166.366ZM195.964 163.068C199.917 163.068 203.279 163.55 206.086 164.47L207.331 160.668C204.028 159.587 200.228 159.068 195.964 159.068V163.068ZM206.095 164.473C209.039 165.421 211.863 166.744 214.57 168.448L216.701 165.064C213.72 163.186 210.593 161.719 207.321 160.665L206.095 164.473ZM214.741 168.545C214.741 168.545 214.747 168.548 214.759 168.556C214.77 168.565 214.789 168.58 214.814 168.605C214.864 168.655 214.938 168.744 215.026 168.891L218.456 166.833C218.003 166.078 217.38 165.392 216.53 164.967L214.741 168.545ZM215.026 168.891C215.15 169.098 215.215 169.319 215.215 169.6H219.215C219.215 168.617 218.964 167.68 218.456 166.833L215.026 168.891ZM215.215 169.6C215.215 169.966 215.109 170.221 214.853 170.477L217.682 173.305C218.689 172.297 219.215 171.025 219.215 169.6H215.215ZM214.793 170.54C214.657 170.688 214.44 170.839 213.897 170.839V174.839C215.356 174.839 216.719 174.358 217.742 173.242L214.793 170.54ZM213.897 170.839C213.634 170.839 213.386 170.782 213.133 170.655L211.344 174.233C212.144 174.633 213.002 174.839 213.897 174.839V170.839ZM213.262 170.726C210.661 169.176 208.034 167.999 205.383 167.209L204.241 171.043C206.541 171.728 208.865 172.763 211.215 174.162L213.262 170.726ZM205.383 167.209C202.702 166.41 199.821 166.02 196.754 166.02V170.02C199.481 170.02 201.972 170.367 204.241 171.043L205.383 167.209ZM196.754 166.02C192.462 166.02 188.53 166.926 185.002 168.777L186.86 172.319C189.758 170.799 193.041 170.02 196.754 170.02V166.02ZM185.002 168.777C181.437 170.647 178.632 173.402 176.606 176.991L180.089 178.957C181.75 176.015 184.001 173.819 186.86 172.319L185.002 168.777ZM176.6 177C174.611 180.569 173.661 184.764 173.661 189.508H177.661C177.661 185.299 178.502 181.804 180.094 178.948L176.6 177ZM173.661 189.508C173.661 193.897 174.564 197.904 176.412 201.485L179.967 199.651C178.444 196.701 177.661 193.335 177.661 189.508H173.661ZM176.43 201.52C178.345 205.059 181.08 207.877 184.599 209.953L186.632 206.509C183.725 204.793 181.51 202.502 179.948 199.616L176.43 201.52ZM184.632 209.973C188.247 212.014 192.443 212.996 197.149 212.996V208.996C193.008 208.996 189.514 208.135 186.599 206.489L184.632 209.973ZM197.149 212.996C202.427 212.996 207.364 211.757 211.929 209.277L210.02 205.763C206.053 207.917 201.773 208.996 197.149 208.996V212.996ZM212.974 207.52V193.221H208.974V207.52H212.974ZM210.974 191.221H197.939V195.221H210.974V191.221ZM197.939 191.221C197.573 191.221 197.319 191.115 197.063 190.859L194.234 193.687C195.242 194.695 196.515 195.221 197.939 195.221V191.221ZM197.063 190.859C196.806 190.603 196.7 190.348 196.7 189.982H192.7C192.7 191.407 193.226 192.679 194.234 193.687L197.063 190.859ZM196.7 189.982C196.7 189.616 196.806 189.361 197.063 189.105L194.234 186.277C193.226 187.285 192.7 188.557 192.7 189.982H196.7ZM197.063 189.105C197.319 188.849 197.573 188.743 197.939 188.743V184.743C196.515 184.743 195.242 185.269 194.234 186.277L197.063 189.105ZM197.939 188.743H213.502V184.743H197.939V188.743ZM213.502 188.743C214.031 188.743 214.416 188.905 214.774 189.263L217.603 186.435C216.486 185.318 215.08 184.743 213.502 184.743V188.743ZM214.774 189.263C215.132 189.621 215.294 190.006 215.294 190.535H219.294C219.294 188.957 218.719 187.551 217.603 186.435L214.774 189.263ZM215.294 190.535V208.468H219.294V190.535H215.294ZM215.294 208.468C215.294 209.204 215.108 209.824 214.746 210.383L218.105 212.557C218.901 211.325 219.294 209.944 219.294 208.468H215.294ZM214.729 210.41C214.405 210.928 213.987 211.299 213.441 211.556L215.144 215.176C216.389 214.59 217.392 213.697 218.121 212.53L214.729 210.41ZM213.398 211.577C207.757 214.398 202.031 215.79 196.201 215.79V219.79C202.695 219.79 209.03 218.233 215.187 215.155L213.398 211.577Z" fill="white"/>
<g filter="url(#filter1_d_8_0)">
<path d="M272 102H192C179.85 102 170 92.1503 170 80V0L272 102Z" fill="url(#paint2_linear_8_0)"/>
</g>
</g>
<defs>
<filter id="filter0_f_8_0" x="9" y="110" width="256" height="162" filterUnits="userSpaceOnUse" color-interpolation-filters="sRGB">
<feFlood flood-opacity="0" result="BackgroundImageFix"/>
<feBlend mode="normal" in="SourceGraphic" in2="BackgroundImageFix" result="shape"/>
<feGaussianBlur stdDeviation="19.5" result="effect1_foregroundBlur_8_0"/>
</filter>
<filter id="filter1_d_8_0" x="147" y="-24" width="152" height="152" filterUnits="userSpaceOnUse" color-interpolation-filters="sRGB">
<feFlood flood-opacity="0" result="BackgroundImageFix"/>
<feColorMatrix in="SourceAlpha" type="matrix" values="0 0 0 0 0 0 0 0 0 0 0 0 0 0 0 0 0 0 127 0" result="hardAlpha"/>
<feOffset dx="2" dy="1"/>
<feGaussianBlur stdDeviation="12.5"/>
<feColorMatrix type="matrix" values="0 0 0 0 0 0 0 0 0 0 0 0 0 0 0 0 0 0 0.33 0"/>
<feBlend mode="normal" in2="BackgroundImageFix" result="effect1_dropShadow_8_0"/>
<feBlend mode="normal" in="SourceGraphic" in2="effect1_dropShadow_8_0" result="shape"/>
</filter>
<linearGradient id="paint0_linear_8_0" x1="136" y1="0" x2="136" y2="308" gradientUnits="userSpaceOnUse">
<stop stop-color="#FF7979"/>
<stop offset="1" stop-color="#E85555"/>
</linearGradient>
<linearGradient id="paint1_linear_8_0" x1="136" y1="0" x2="136" y2="308" gradientUnits="userSpaceOnUse">
<stop stop-color="#FF6AC3"/>
<stop offset="1" stop-color="#DD3C9C"/>
</linearGradient>
<linearGradient id="paint2_linear_8_0" x1="221" y1="0" x2="221" y2="102" gradientUnits="userSpaceOnUse">
<stop stop-color="#F430A6"/>
<stop offset="1" stop-color="#BF0B77"/>
</linearGradient>
</defs>
</svg>
