<svg width="378" height="414" viewBox="0 0 378 414" fill="none" xmlns="http://www.w3.org/2000/svg">
<g filter="url(#filter0_d_8_86)">
<mask id="mask0_8_86" style="mask-type:alpha" maskUnits="userSpaceOnUse" x="53" y="39" width="272" height="308">
<path d="M303 347H75C62.8497 347 53 337.15 53 325V61C53 48.8497 62.8497 39 75 39H223L325 141V325C325 337.15 315.15 347 303 347Z" fill="url(#paint0_linear_8_86)"/>
</mask>
<g mask="url(#mask0_8_86)">
<path d="M303 347H75C62.8497 347 53 337.15 53 325V61C53 48.8497 62.8497 39 75 39H223L325 141V325C325 337.15 315.15 347 303 347Z" fill="url(#paint1_linear_8_86)"/>
<g opacity="0.51" filter="url(#filter1_f_8_86)">
<rect x="101" y="188" width="178" height="84" fill="#E33CC8" style="mix-blend-mode:darken"/>
</g>
<g opacity="0.12">
<path fill-rule="evenodd" clip-rule="evenodd" d="M132 164C127.582 164 124 167.582 124 172V284C124 288.418 127.582 292 132 292H244C248.418 292 252 288.418 252 284V172C252 167.582 248.418 164 244 164H132ZM108 172C108 158.745 118.745 148 132 148H244C257.255 148 268 158.745 268 172V284C268 297.255 257.255 308 244 308H132C118.745 308 108 297.255 108 284V172Z" fill="white"/>
<path fill-rule="evenodd" clip-rule="evenodd" d="M214.343 206.343C217.467 203.219 222.533 203.219 225.657 206.343L265.657 246.343C268.781 249.467 268.781 254.533 265.657 257.657C262.533 260.781 257.467 260.781 254.343 257.657L220 223.314L137.657 305.657C134.533 308.781 129.467 308.781 126.343 305.657C123.219 302.533 123.219 297.467 126.343 294.343L214.343 206.343Z" fill="white"/>
<path fill-rule="evenodd" clip-rule="evenodd" d="M160 196C157.791 196 156 197.791 156 200C156 202.209 157.791 204 160 204C162.209 204 164 202.209 164 200C164 197.791 162.209 196 160 196ZM140 200C140 188.954 148.954 180 160 180C171.046 180 180 188.954 180 200C180 211.046 171.046 220 160 220C148.954 220 140 211.046 140 200Z" fill="white"/>
</g>
<ellipse opacity="0.03" cx="38.5" cy="26.5" rx="223.5" ry="214.5" fill="url(#paint2_linear_8_86)"/>
<ellipse opacity="0.03" cx="38.5" cy="26.5" rx="140.5" ry="134.5" fill="url(#paint3_linear_8_86)"/>
<path d="M75.594 265.395C74.5407 265.395 73.5927 265.105 72.75 264.526C71.96 263.894 71.3543 262.999 70.933 261.84L55.449 214.282C55.291 213.703 55.212 213.255 55.212 212.939C55.1593 211.938 55.449 211.122 56.081 210.49C56.7657 209.805 57.6347 209.463 58.688 209.463C59.5307 209.463 60.268 209.726 60.9 210.253C61.532 210.78 61.9797 211.464 62.243 212.307L75.515 255.915L88.866 212.465C89.1293 211.57 89.6297 210.859 90.367 210.332C91.157 209.753 92.026 209.463 92.974 209.463C93.922 209.463 94.7647 209.753 95.502 210.332C96.292 210.859 96.8187 211.57 97.082 212.465L110.433 255.915L123.705 212.307C123.968 211.464 124.416 210.78 125.048 210.253C125.68 209.726 126.417 209.463 127.26 209.463C128.313 209.463 129.156 209.805 129.788 210.49C130.473 211.122 130.789 211.938 130.736 212.939C130.736 213.255 130.657 213.703 130.499 214.282L115.015 261.84C114.594 262.999 113.962 263.894 113.119 264.526C112.329 265.105 111.407 265.395 110.354 265.395C109.301 265.395 108.326 265.079 107.431 264.447C106.588 263.762 106.009 262.893 105.693 261.84L92.974 221.55L80.255 261.84C79.939 262.893 79.3333 263.762 78.438 264.447C77.5953 265.079 76.6473 265.395 75.594 265.395ZM149.597 265C148.596 265 147.753 264.658 147.069 263.973C146.384 263.288 146.042 262.446 146.042 261.445V213.492C146.042 212.491 146.384 211.649 147.069 210.964C147.753 210.227 148.596 209.858 149.597 209.858H181.276C182.224 209.858 183.014 210.2 183.646 210.885C184.33 211.517 184.673 212.307 184.673 213.255C184.673 214.203 184.33 214.993 183.646 215.625C183.014 216.257 182.224 216.573 181.276 216.573H153.231V234.032H178.432C179.38 234.032 180.17 234.374 180.802 235.059C181.486 235.691 181.829 236.481 181.829 237.429C181.829 238.377 181.486 239.167 180.802 239.799C180.17 240.431 179.38 240.747 178.432 240.747H153.231V258.285H181.276C182.224 258.285 183.014 258.627 183.646 259.312C184.33 259.944 184.673 260.734 184.673 261.682C184.673 262.63 184.33 263.42 183.646 264.052C183.014 264.684 182.224 265 181.276 265H149.597ZM205.505 265C204.504 265 203.661 264.658 202.977 263.973C202.292 263.288 201.95 262.446 201.95 261.445V213.492C201.95 212.491 202.292 211.649 202.977 210.964C203.661 210.227 204.504 209.858 205.505 209.858H224.149C229.784 209.858 234.129 211.148 237.184 213.729C240.291 216.31 241.845 219.786 241.845 224.157C241.845 227.212 241.107 229.766 239.633 231.82C238.211 233.821 236.367 235.322 234.103 236.323C237.263 237.324 239.843 238.93 241.845 241.142C243.899 243.354 244.926 246.145 244.926 249.516C244.926 254.361 243.293 258.153 240.028 260.892C236.762 263.631 231.627 265 224.623 265H205.505ZM222.253 233.716C226.94 233.716 230.232 232.926 232.128 231.346C234.024 229.766 234.972 227.554 234.972 224.71C234.972 222.235 233.945 220.26 231.891 218.785C229.889 217.31 227.124 216.573 223.596 216.573H209.139V233.716H222.253ZM223.912 258.285C229.02 258.285 232.628 257.495 234.735 255.915C236.894 254.335 237.974 252.097 237.974 249.2C237.974 243.196 233.313 240.194 223.991 240.194H209.139V258.285H223.912ZM265.81 265.395C264.809 265.395 263.967 265.053 263.282 264.368C262.597 263.683 262.255 262.841 262.255 261.84V213.492C262.255 212.491 262.597 211.649 263.282 210.964C263.967 210.227 264.809 209.858 265.81 209.858H283.822C288.825 209.858 292.907 210.701 296.067 212.386C299.227 214.071 301.492 216.231 302.861 218.864C304.23 221.497 304.915 224.341 304.915 227.396C304.915 230.451 304.23 233.295 302.861 235.928C301.492 238.561 299.227 240.721 296.067 242.406C292.907 244.091 288.825 244.934 283.822 244.934H269.444V261.84C269.444 262.841 269.075 263.683 268.338 264.368C267.653 265.053 266.811 265.395 265.81 265.395ZM283.111 238.14C288.483 238.14 292.249 237.113 294.408 235.059C296.62 233.005 297.726 230.451 297.726 227.396C297.726 224.341 296.62 221.787 294.408 219.733C292.249 217.679 288.483 216.652 283.111 216.652H269.444V238.14H283.111Z" fill="white"/>
<path d="M72.75 264.526L71.5006 266.088L71.5572 266.133L71.6169 266.174L72.75 264.526ZM70.933 261.84L69.0313 262.459L69.0418 262.492L69.0534 262.523L70.933 261.84ZM55.449 214.282L53.5195 214.808L53.5322 214.855L53.5473 214.901L55.449 214.282ZM55.212 212.939H57.212V212.886L57.2092 212.834L55.212 212.939ZM56.081 210.49L54.6668 209.076L54.6668 209.076L56.081 210.49ZM60.9 210.253L59.6196 211.789L59.6196 211.789L60.9 210.253ZM62.243 212.307L64.1563 211.725L64.1542 211.718L64.152 211.71L62.243 212.307ZM75.515 255.915L73.6017 256.497L75.5059 262.754L77.4268 256.502L75.515 255.915ZM88.866 212.465L90.7778 213.052L90.7813 213.041L90.7847 213.029L88.866 212.465ZM90.367 210.332L91.5295 211.959L91.5396 211.952L91.5497 211.945L90.367 210.332ZM95.502 210.332L94.2664 211.905L94.3277 211.953L94.3926 211.996L95.502 210.332ZM97.082 212.465L95.1633 213.029L95.1667 213.041L95.1702 213.052L97.082 212.465ZM110.433 255.915L108.521 256.502L110.442 262.754L112.346 256.497L110.433 255.915ZM123.705 212.307L121.796 211.71L121.794 211.718L121.792 211.725L123.705 212.307ZM125.048 210.253L126.328 211.789L126.328 211.789L125.048 210.253ZM129.788 210.49L128.318 211.847L128.373 211.905L128.431 211.96L129.788 210.49ZM130.736 212.939L128.739 212.834L128.736 212.886V212.939H130.736ZM130.499 214.282L132.401 214.901L132.416 214.855L132.429 214.808L130.499 214.282ZM115.015 261.84L116.895 262.523L116.906 262.492L116.917 262.459L115.015 261.84ZM113.119 264.526L114.302 266.139L114.31 266.132L114.319 266.126L113.119 264.526ZM107.431 264.447L106.17 265.999L106.222 266.042L106.278 266.081L107.431 264.447ZM105.693 261.84L107.609 261.265L107.605 261.252L107.6 261.238L105.693 261.84ZM92.974 221.55L94.8812 220.948L92.974 214.906L91.0668 220.948L92.974 221.55ZM80.255 261.84L78.3478 261.238L78.3435 261.252L78.3393 261.265L80.255 261.84ZM78.438 264.447L79.638 266.047L79.6455 266.041L79.6529 266.036L78.438 264.447ZM75.594 263.395C74.9323 263.395 74.3818 263.221 73.8831 262.878L71.6169 266.174C72.8035 266.99 74.149 267.395 75.594 267.395V263.395ZM73.9994 262.964C73.5529 262.607 73.1359 262.046 72.8126 261.157L69.0534 262.523C69.5728 263.952 70.3671 265.181 71.5006 266.088L73.9994 262.964ZM72.8347 261.221L57.3507 213.663L53.5473 214.901L69.0313 262.459L72.8347 261.221ZM57.3785 213.756C57.3108 213.508 57.267 213.312 57.2408 213.164C57.2279 213.091 57.2204 213.035 57.2162 212.995C57.212 212.954 57.212 212.937 57.212 212.939H53.212C53.212 213.527 53.3487 214.182 53.5195 214.808L57.3785 213.756ZM57.2092 212.834C57.1824 212.323 57.3151 212.084 57.4952 211.904L54.6668 209.076C53.5829 210.16 53.1363 211.553 53.2148 213.044L57.2092 212.834ZM57.4952 211.904C57.77 211.629 58.1137 211.463 58.688 211.463V207.463C57.1556 207.463 55.7613 207.981 54.6668 209.076L57.4952 211.904ZM58.688 211.463C59.0752 211.463 59.3565 211.57 59.6196 211.789L62.1804 208.717C61.1795 207.883 59.9861 207.463 58.688 207.463V211.463ZM59.6196 211.789C59.9342 212.052 60.1767 212.4 60.334 212.904L64.152 211.71C63.7826 210.529 63.1298 209.508 62.1804 208.717L59.6196 211.789ZM60.3297 212.889L73.6017 256.497L77.4283 255.333L64.1563 211.725L60.3297 212.889ZM77.4268 256.502L90.7778 213.052L86.9542 211.878L73.6032 255.328L77.4268 256.502ZM90.7847 213.029C90.926 212.549 91.1676 212.218 91.5295 211.959L89.2045 208.705C88.0918 209.499 87.3327 210.59 86.9473 211.901L90.7847 213.029ZM91.5497 211.945C92.009 211.608 92.4663 211.463 92.974 211.463V207.463C91.5857 207.463 90.305 207.897 89.1843 208.719L91.5497 211.945ZM92.974 211.463C93.4792 211.463 93.8856 211.605 94.2664 211.905L96.7376 208.759C95.6438 207.9 94.3648 207.463 92.974 207.463V211.463ZM94.3926 211.996C94.7996 212.267 95.0348 212.593 95.1633 213.029L99.0007 211.901C98.6025 210.547 97.7844 209.45 96.6114 208.668L94.3926 211.996ZM95.1702 213.052L108.521 256.502L112.345 255.328L98.9938 211.878L95.1702 213.052ZM112.346 256.497L125.618 212.889L121.792 211.725L108.52 255.333L112.346 256.497ZM125.614 212.904C125.771 212.4 126.014 212.052 126.328 211.789L123.768 208.717C122.818 209.508 122.165 210.529 121.796 211.71L125.614 212.904ZM126.328 211.789C126.592 211.57 126.873 211.463 127.26 211.463V207.463C125.962 207.463 124.768 207.883 123.768 208.717L126.328 211.789ZM127.26 211.463C127.836 211.463 128.116 211.628 128.318 211.847L131.258 209.133C130.196 207.983 128.791 207.463 127.26 207.463V211.463ZM128.431 211.96C128.643 212.155 128.763 212.376 128.739 212.834L132.733 213.044C132.814 211.5 132.303 210.089 131.145 209.02L128.431 211.96ZM128.736 212.939C128.736 212.937 128.736 212.954 128.732 212.995C128.728 213.035 128.72 213.091 128.707 213.164C128.681 213.312 128.637 213.508 128.569 213.756L132.429 214.808C132.599 214.182 132.736 213.527 132.736 212.939H128.736ZM128.597 213.663L113.113 261.221L116.917 262.459L132.401 214.901L128.597 213.663ZM113.135 261.157C112.824 262.014 112.401 262.565 111.919 262.926L114.319 266.126C115.522 265.223 116.364 263.984 116.895 262.523L113.135 261.157ZM111.936 262.913C111.516 263.222 111.016 263.395 110.354 263.395V267.395C111.799 267.395 113.142 266.989 114.302 266.139L111.936 262.913ZM110.354 263.395C109.731 263.395 109.157 263.217 108.584 262.813L106.278 266.081C107.496 266.941 108.87 267.395 110.354 267.395V263.395ZM108.692 262.895C108.165 262.466 107.811 261.94 107.609 261.265L103.777 262.415C104.207 263.847 105.012 265.058 106.17 265.999L108.692 262.895ZM107.6 261.238L94.8812 220.948L91.0668 222.152L103.786 262.442L107.6 261.238ZM91.0668 220.948L78.3478 261.238L82.1622 262.442L94.8812 222.152L91.0668 220.948ZM78.3393 261.265C78.1475 261.905 77.7929 262.423 77.2231 262.858L79.6529 266.036C80.8738 265.102 81.7305 263.882 82.1707 262.415L78.3393 261.265ZM77.238 262.847C76.7415 263.219 76.2146 263.395 75.594 263.395V267.395C77.0801 267.395 78.4491 266.939 79.638 266.047L77.238 262.847ZM147.069 263.973L148.483 262.559L148.483 262.559L147.069 263.973ZM147.069 210.964L148.483 212.378L148.509 212.352L148.534 212.325L147.069 210.964ZM183.646 210.885L182.176 212.242L182.23 212.3L182.289 212.355L183.646 210.885ZM183.646 215.625L182.289 214.155L182.26 214.183L182.231 214.211L183.646 215.625ZM153.231 216.573V214.573H151.231V216.573H153.231ZM153.231 234.032H151.231V236.032H153.231V234.032ZM180.802 235.059L179.332 236.416L179.386 236.474L179.445 236.529L180.802 235.059ZM180.802 239.799L179.445 238.329L179.416 238.357L179.387 238.385L180.802 239.799ZM153.231 240.747V238.747H151.231V240.747H153.231ZM153.231 258.285H151.231V260.285H153.231V258.285ZM183.646 259.312L182.176 260.669L182.23 260.727L182.289 260.782L183.646 259.312ZM183.646 264.052L182.289 262.582L182.26 262.61L182.231 262.638L183.646 264.052ZM149.597 263C149.107 263 148.779 262.855 148.483 262.559L145.654 265.387C146.728 266.461 148.085 267 149.597 267V263ZM148.483 262.559C148.187 262.263 148.042 261.935 148.042 261.445H144.042C144.042 262.956 144.581 264.314 145.654 265.387L148.483 262.559ZM148.042 261.445V213.492H144.042V261.445H148.042ZM148.042 213.492C148.042 213.002 148.187 212.674 148.483 212.378L145.654 209.55C144.581 210.623 144.042 211.981 144.042 213.492H148.042ZM148.534 212.325C148.843 211.993 149.156 211.858 149.597 211.858V207.858C148.036 207.858 146.664 208.461 145.603 209.603L148.534 212.325ZM149.597 211.858H181.276V207.858H149.597V211.858ZM181.276 211.858C181.676 211.858 181.93 211.975 182.176 212.242L185.115 209.528C184.097 208.426 182.771 207.858 181.276 207.858V211.858ZM182.289 212.355C182.556 212.601 182.673 212.854 182.673 213.255H186.673C186.673 211.76 186.105 210.433 185.002 209.415L182.289 212.355ZM182.673 213.255C182.673 213.656 182.556 213.909 182.289 214.155L185.002 217.095C186.105 216.077 186.673 214.75 186.673 213.255H182.673ZM182.231 214.211C181.999 214.443 181.729 214.573 181.276 214.573V218.573C182.718 218.573 184.028 218.071 185.06 217.039L182.231 214.211ZM181.276 214.573H153.231V218.573H181.276V214.573ZM151.231 216.573V234.032H155.231V216.573H151.231ZM153.231 236.032H178.432V232.032H153.231V236.032ZM178.432 236.032C178.832 236.032 179.086 236.149 179.332 236.416L182.271 233.702C181.253 232.6 179.927 232.032 178.432 232.032V236.032ZM179.445 236.529C179.712 236.775 179.829 237.028 179.829 237.429H183.829C183.829 235.934 183.261 234.607 182.158 233.589L179.445 236.529ZM179.829 237.429C179.829 237.83 179.712 238.083 179.445 238.329L182.158 241.269C183.261 240.251 183.829 238.924 183.829 237.429H179.829ZM179.387 238.385C179.155 238.617 178.885 238.747 178.432 238.747V242.747C179.874 242.747 181.184 242.245 182.216 241.213L179.387 238.385ZM178.432 238.747H153.231V242.747H178.432V238.747ZM151.231 240.747V258.285H155.231V240.747H151.231ZM153.231 260.285H181.276V256.285H153.231V260.285ZM181.276 260.285C181.676 260.285 181.93 260.402 182.176 260.669L185.115 257.955C184.097 256.853 182.771 256.285 181.276 256.285V260.285ZM182.289 260.782C182.556 261.028 182.673 261.281 182.673 261.682H186.673C186.673 260.187 186.105 258.86 185.002 257.842L182.289 260.782ZM182.673 261.682C182.673 262.083 182.556 262.336 182.289 262.582L185.002 265.522C186.105 264.504 186.673 263.177 186.673 261.682H182.673ZM182.231 262.638C181.999 262.87 181.729 263 181.276 263V267C182.718 267 184.028 266.498 185.06 265.466L182.231 262.638ZM181.276 263H149.597V267H181.276V263ZM202.977 263.973L204.391 262.559L204.391 262.559L202.977 263.973ZM202.977 210.964L204.391 212.378L204.417 212.352L204.442 212.325L202.977 210.964ZM237.184 213.729L235.893 215.257L235.899 215.262L235.906 215.268L237.184 213.729ZM239.633 231.82L238.008 230.654L238.002 230.662L239.633 231.82ZM234.103 236.323L233.294 234.494L228.454 236.632L233.499 238.23L234.103 236.323ZM241.845 241.142L240.361 242.484L240.37 242.493L240.379 242.503L241.845 241.142ZM240.028 260.892L241.313 262.424L241.313 262.424L240.028 260.892ZM232.128 231.346L230.847 229.81L232.128 231.346ZM231.891 218.785L230.704 220.395L230.714 220.402L230.724 220.41L231.891 218.785ZM209.139 216.573V214.573H207.139V216.573H209.139ZM209.139 233.716H207.139V235.716H209.139V233.716ZM234.735 255.915L233.554 254.301L233.544 254.308L233.535 254.315L234.735 255.915ZM209.139 240.194V238.194H207.139V240.194H209.139ZM209.139 258.285H207.139V260.285H209.139V258.285ZM205.505 263C205.014 263 204.687 262.855 204.391 262.559L201.562 265.387C202.636 266.461 203.993 267 205.505 267V263ZM204.391 262.559C204.095 262.263 203.95 261.935 203.95 261.445H199.95C199.95 262.956 200.489 264.314 201.562 265.387L204.391 262.559ZM203.95 261.445V213.492H199.95V261.445H203.95ZM203.95 213.492C203.95 213.002 204.095 212.674 204.391 212.378L201.562 209.55C200.489 210.623 199.95 211.981 199.95 213.492H203.95ZM204.442 212.325C204.751 211.993 205.064 211.858 205.505 211.858V207.858C203.944 207.858 202.572 208.461 201.511 209.603L204.442 212.325ZM205.505 211.858H224.149V207.858H205.505V211.858ZM224.149 211.858C229.502 211.858 233.322 213.085 235.893 215.257L238.474 212.201C234.936 209.212 230.065 207.858 224.149 207.858V211.858ZM235.906 215.268C238.514 217.434 239.845 220.325 239.845 224.157H243.845C243.845 219.247 242.067 215.185 238.461 212.19L235.906 215.268ZM239.845 224.157C239.845 226.882 239.191 229.005 238.008 230.654L241.257 232.986C243.023 230.527 243.845 227.541 243.845 224.157H239.845ZM238.002 230.662C236.791 232.367 235.232 233.637 233.294 234.494L234.911 238.152C237.502 237.007 239.63 235.276 241.263 232.978L238.002 230.662ZM233.499 238.23C236.359 239.136 238.624 240.563 240.361 242.484L243.328 239.8C241.063 237.297 238.166 235.512 234.706 234.416L233.499 238.23ZM240.379 242.503C242.048 244.301 242.926 246.586 242.926 249.516H246.926C246.926 245.704 245.749 242.407 243.31 239.781L240.379 242.503ZM242.926 249.516C242.926 253.861 241.489 257.056 238.742 259.36L241.313 262.424C245.096 259.251 246.926 254.862 246.926 249.516H242.926ZM238.742 259.36C236.006 261.655 231.438 263 224.623 263V267C231.816 267 237.519 265.606 241.313 262.424L238.742 259.36ZM224.623 263H205.505V267H224.623V263ZM222.253 235.716C227.042 235.716 230.947 234.933 233.408 232.882L230.847 229.81C229.516 230.919 226.837 231.716 222.253 231.716V235.716ZM233.408 232.882C235.832 230.862 236.972 228.047 236.972 224.71H232.972C232.972 227.061 232.215 228.67 230.847 229.81L233.408 232.882ZM236.972 224.71C236.972 221.574 235.621 219.001 233.057 217.16L230.724 220.41C232.268 221.518 232.972 222.895 232.972 224.71H236.972ZM233.077 217.175C230.615 215.36 227.378 214.573 223.596 214.573V218.573C226.871 218.573 229.164 219.26 230.704 220.395L233.077 217.175ZM223.596 214.573H209.139V218.573H223.596V214.573ZM207.139 216.573V233.716H211.139V216.573H207.139ZM209.139 235.716H222.253V231.716H209.139V235.716ZM223.912 260.285C229.108 260.285 233.281 259.505 235.935 257.515L233.535 254.315C231.974 255.485 228.933 256.285 223.912 256.285V260.285ZM235.916 257.529C238.637 255.538 239.974 252.673 239.974 249.2H235.974C235.974 251.52 235.151 253.132 233.554 254.301L235.916 257.529ZM239.974 249.2C239.974 245.585 238.517 242.668 235.561 240.764C232.755 238.957 228.802 238.194 223.991 238.194V242.194C228.501 242.194 231.539 242.932 233.395 244.127C235.099 245.225 235.974 246.811 235.974 249.2H239.974ZM223.991 238.194H209.139V242.194H223.991V238.194ZM207.139 240.194V258.285H211.139V240.194H207.139ZM209.139 260.285H223.912V256.285H209.139V260.285ZM263.282 264.368L264.696 262.954L264.696 262.954L263.282 264.368ZM263.282 210.964L264.696 212.378L264.722 212.352L264.748 212.325L263.282 210.964ZM296.067 212.386L297.008 210.621L296.067 212.386ZM302.861 218.864L301.087 219.787L301.087 219.787L302.861 218.864ZM302.861 235.928L301.087 235.005L301.087 235.005L302.861 235.928ZM296.067 242.406L297.008 244.171L296.067 242.406ZM269.444 244.934V242.934H267.444V244.934H269.444ZM268.338 264.368L266.977 262.902L266.95 262.928L266.924 262.954L268.338 264.368ZM294.408 235.059L293.047 233.593L293.038 233.602L293.03 233.61L294.408 235.059ZM294.408 219.733L293.03 221.182L293.038 221.19L293.047 221.199L294.408 219.733ZM269.444 216.652V214.652H267.444V216.652H269.444ZM269.444 238.14H267.444V240.14H269.444V238.14ZM265.81 263.395C265.32 263.395 264.992 263.25 264.696 262.954L261.868 265.782C262.941 266.856 264.299 267.395 265.81 267.395V263.395ZM264.696 262.954C264.4 262.658 264.255 262.33 264.255 261.84H260.255C260.255 263.351 260.794 264.709 261.868 265.782L264.696 262.954ZM264.255 261.84V213.492H260.255V261.84H264.255ZM264.255 213.492C264.255 213.002 264.4 212.674 264.696 212.378L261.868 209.55C260.794 210.623 260.255 211.981 260.255 213.492H264.255ZM264.748 212.325C265.056 211.993 265.369 211.858 265.81 211.858V207.858C264.25 207.858 262.877 208.461 261.816 209.603L264.748 212.325ZM265.81 211.858H283.822V207.858H265.81V211.858ZM283.822 211.858C288.62 211.858 292.347 212.669 295.126 214.151L297.008 210.621C293.466 208.732 289.03 207.858 283.822 207.858V211.858ZM295.126 214.151C298.004 215.686 299.939 217.58 301.087 219.787L304.635 217.941C303.044 214.881 300.45 212.457 297.008 210.621L295.126 214.151ZM301.087 219.787C302.303 222.127 302.915 224.653 302.915 227.396H306.915C306.915 224.03 306.157 220.868 304.635 217.941L301.087 219.787ZM302.915 227.396C302.915 230.139 302.303 232.665 301.087 235.005L304.635 236.851C306.157 233.924 306.915 230.762 306.915 227.396H302.915ZM301.087 235.005C299.939 237.212 298.004 239.106 295.126 240.641L297.008 244.171C300.45 242.335 303.044 239.911 304.635 236.851L301.087 235.005ZM295.126 240.641C292.347 242.123 288.62 242.934 283.822 242.934V246.934C289.03 246.934 293.466 246.06 297.008 244.171L295.126 240.641ZM283.822 242.934H269.444V246.934H283.822V242.934ZM267.444 244.934V261.84H271.444V244.934H267.444ZM267.444 261.84C267.444 262.281 267.309 262.594 266.977 262.902L269.699 265.834C270.841 264.773 271.444 263.4 271.444 261.84H267.444ZM266.924 262.954C266.628 263.25 266.3 263.395 265.81 263.395V267.395C267.321 267.395 268.679 266.856 269.752 265.782L266.924 262.954ZM283.111 240.14C288.623 240.14 293.052 239.109 295.786 236.508L293.03 233.61C291.445 235.117 288.343 236.14 283.111 236.14V240.14ZM295.769 236.525C298.394 234.087 299.726 230.999 299.726 227.396H295.726C295.726 229.902 294.846 231.923 293.047 233.593L295.769 236.525ZM299.726 227.396C299.726 223.793 298.394 220.705 295.769 218.267L293.047 221.199C294.846 222.869 295.726 224.89 295.726 227.396H299.726ZM295.786 218.284C293.052 215.683 288.623 214.652 283.111 214.652V218.652C288.343 218.652 291.445 219.675 293.03 221.182L295.786 218.284ZM283.111 214.652H269.444V218.652H283.111V214.652ZM267.444 216.652V238.14H271.444V216.652H267.444ZM269.444 240.14H283.111V236.14H269.444V240.14Z" fill="white"/>
<g filter="url(#filter2_d_8_86)">
<path d="M325 141H245C232.85 141 223 131.15 223 119V39L325 141Z" fill="url(#paint4_linear_8_86)"/>
</g>
</g>
</g>
<defs>
<filter id="filter0_d_8_86" x="0" y="0" width="378" height="414" filterUnits="userSpaceOnUse" color-interpolation-filters="sRGB">
<feFlood flood-opacity="0" result="BackgroundImageFix"/>
<feColorMatrix in="SourceAlpha" type="matrix" values="0 0 0 0 0 0 0 0 0 0 0 0 0 0 0 0 0 0 127 0" result="hardAlpha"/>
<feOffset dy="14"/>
<feGaussianBlur stdDeviation="26.5"/>
<feColorMatrix type="matrix" values="0 0 0 0 0 0 0 0 0 0 0 0 0 0 0 0 0 0 0.24 0"/>
<feBlend mode="normal" in2="BackgroundImageFix" result="effect1_dropShadow_8_86"/>
<feBlend mode="normal" in="SourceGraphic" in2="effect1_dropShadow_8_86" result="shape"/>
</filter>
<filter id="filter1_f_8_86" x="62" y="149" width="256" height="162" filterUnits="userSpaceOnUse" color-interpolation-filters="sRGB">
<feFlood flood-opacity="0" result="BackgroundImageFix"/>
<feBlend mode="normal" in="SourceGraphic" in2="BackgroundImageFix" result="shape"/>
<feGaussianBlur stdDeviation="19.5" result="effect1_foregroundBlur_8_86"/>
</filter>
<filter id="filter2_d_8_86" x="200" y="15" width="152" height="152" filterUnits="userSpaceOnUse" color-interpolation-filters="sRGB">
<feFlood flood-opacity="0" result="BackgroundImageFix"/>
<feColorMatrix in="SourceAlpha" type="matrix" values="0 0 0 0 0 0 0 0 0 0 0 0 0 0 0 0 0 0 127 0" result="hardAlpha"/>
<feOffset dx="2" dy="1"/>
<feGaussianBlur stdDeviation="12.5"/>
<feColorMatrix type="matrix" values="0 0 0 0 0 0 0 0 0 0 0 0 0 0 0 0 0 0 0.33 0"/>
<feBlend mode="normal" in2="BackgroundImageFix" result="effect1_dropShadow_8_86"/>
<feBlend mode="normal" in="SourceGraphic" in2="effect1_dropShadow_8_86" result="shape"/>
</filter>
<linearGradient id="paint0_linear_8_86" x1="189" y1="39" x2="189" y2="347" gradientUnits="userSpaceOnUse">
<stop stop-color="#FF7979"/>
<stop offset="1" stop-color="#E85555"/>
</linearGradient>
<linearGradient id="paint1_linear_8_86" x1="189" y1="39" x2="189" y2="347" gradientUnits="userSpaceOnUse">
<stop stop-color="#ED81FF"/>
<stop offset="1" stop-color="#DC5DD7"/>
</linearGradient>
<linearGradient id="paint2_linear_8_86" x1="54.7277" y1="33.8711" x2="122.507" y2="213.758" gradientUnits="userSpaceOnUse">
<stop stop-color="white" stop-opacity="0"/>
<stop offset="1" stop-color="white"/>
</linearGradient>
<linearGradient id="paint3_linear_8_86" x1="48.7013" y1="31.122" x2="91.1204" y2="143.989" gradientUnits="userSpaceOnUse">
<stop stop-color="white" stop-opacity="0"/>
<stop offset="1" stop-color="white"/>
</linearGradient>
<linearGradient id="paint4_linear_8_86" x1="245.5" y1="7" x2="274" y2="141" gradientUnits="userSpaceOnUse">
<stop stop-color="#F171BE"/>
<stop offset="1" stop-color="#D823D1"/>
</linearGradient>
</defs>
</svg>
